JosefinSlab-Regular_ik.ufo
<glyph name="semicolon" format="1">
  <advance width="244"/>
  <unicode hex="003B"/>
  <outline>
    <contour>
      <point x="89" y="293" type="qcurve"/>
      <point x="89" y="310"/>
      <point x="113" y="334"/>
      <point x="129" y="334" type="qcurve"/>
      <point x="144" y="334"/>
      <point x="169" y="310"/>
      <point x="169" y="293" type="qcurve"/>
      <point x="169" y="275"/>
      <point x="144" y="252"/>
      <point x="129" y="252" type="qcurve"/>
      <point x="113" y="252"/>
      <point x="89" y="275"/>
    </contour>
    <contour>
      <point x="156" y="87" type="line"/>
      <point x="145" y="61"/>
      <point x="131" y="27"/>
      <point x="117" y="-3"/>
      <point x="103" y="-37"/>
      <point x="92" y="-63" type="qcurve"/>
      <point x="43" y="-63" type="line"/>
      <point x="53" y="-37"/>
      <point x="65" y="-3"/>
      <point x="76" y="27"/>
      <point x="88" y="61"/>
      <point x="98" y="87" type="qcurve"/>
    </contour>
  </outline>
</glyph>
<glyph name="I" format="1">
  <advance width="338"/>
  <unicode hex="0049"/>
  <outline>
    <contour>
      <point x="284" y="714" type="line"/>
      <point x="284" y="654" type="line"/>
      <point x="203" y="654" type="line"/>
      <point x="203" y="60" type="line"/>
      <point x="284" y="60" type="line"/>
      <point x="284" y="0" type="line"/>
      <point x="56" y="0" type="line"/>
      <point x="56" y="60" type="line"/>
      <point x="135" y="60" type="line"/>
      <point x="135" y="654" type="line"/>
      <point x="56" y="654" type="line"/>
      <point x="56" y="714" type="line"/>
    </contour>
  </outline>
</glyph>
<glyph name="V" format="1">
  <advance width="734"/>
  <unicode hex="0056"/>
  <outline>
    <contour>
      <point x="728" y="714" type="line"/>
      <point x="728" y="654" type="line"/>
      <point x="651" y="654" type="line"/>
      <point x="367" y="-32" type="line"/>
      <point x="84" y="654" type="line"/>
      <point x="3" y="654" type="line"/>
      <point x="3" y="714" type="line"/>
      <point x="231" y="714" type="line"/>
      <point x="231" y="654" type="line"/>
      <point x="151" y="654" type="line"/>
      <point x="357" y="143" type="line"/>
      <point x="359" y="137"/>
      <point x="361" y="132" type="qcurve"/>
      <point x="363" y="127"/>
      <point x="365" y="116"/>
      <point x="367" y="112" type="qcurve"/>
      <point x="368" y="116"/>
      <point x="371" y="127"/>
      <point x="373" y="132" type="qcurve"/>
      <point x="375" y="137"/>
      <point x="377" y="143" type="qcurve"/>
      <point x="583" y="654" type="line"/>
      <point x="504" y="654" type="line"/>
      <point x="504" y="714" type="line"/>
    </contour>
  </outline>
</glyph>
<glyph name="X" format="1">
  <advance width="673"/>
  <unicode hex="0058"/>
  <outline>
    <contour>
      <point x="253" y="714" type="line"/>
      <point x="253" y="654" type="line"/>
      <point x="187" y="654" type="line"/>
      <point x="204" y="627"/>
      <point x="243" y="566"/>
      <point x="280" y="507"/>
      <point x="313" y="455"/>
      <point x="325" y="437" type="qcurve"/>
      <point x="337" y="413" type="line"/>
      <point x="349" y="437" type="line"/>
      <point x="364" y="461"/>
      <point x="410" y="536"/>
      <point x="460" y="616"/>
      <point x="506" y="690"/>
      <point x="521" y="714" type="qcurve"/>
      <point x="635" y="714" type="line"/>
      <point x="635" y="654" type="line"/>
      <point x="563" y="654" type="line"/>
      <point x="541" y="619"/>
      <point x="488" y="535"/>
      <point x="437" y="453"/>
      <point x="392" y="383"/>
      <point x="379" y="363" type="qcurve"/>
      <point x="575" y="60" type="line"/>
      <point x="664" y="60" type="line"/>
      <point x="664" y="0" type="line"/>
      <point x="436" y="0" type="line"/>
      <point x="436" y="60" type="line"/>
      <point x="492" y="60" type="line"/>
      <point x="367" y="256" type="line"/>
      <point x="360" y="266"/>
      <point x="339" y="303"/>
      <point x="331" y="314" type="qcurve"/>
      <point x="328" y="307"/>
      <point x="321" y="293"/>
      <point x="319" y="291" type="qcurve"/>
      <point x="139" y="0" type="line"/>
      <point x="23" y="0" type="line"/>
      <point x="23" y="60" type="line"/>
      <point x="94" y="60" type="line"/>
      <point x="290" y="366" type="line"/>
      <point x="277" y="386"/>
      <point x="232" y="455"/>
      <point x="180" y="536"/>
      <point x="126" y="619"/>
      <point x="104" y="654" type="qcurve"/>
      <point x="25" y="654" type="line"/>
      <point x="25" y="714" type="line"/>
    </contour>
  </outline>
</glyph>
<glyph name="Y" format="1">
  <advance width="714"/>
  <unicode hex="0059"/>
  <outline>
    <contour>
      <point x="472" y="60" type="line"/>
      <point x="472" y="0" type="line"/>
      <point x="243" y="0" type="line"/>
      <point x="243" y="60" type="line"/>
      <point x="323" y="60" type="line"/>
      <point x="323" y="249" type="line"/>
      <point x="312" y="267"/>
      <point x="279" y="324"/>
      <point x="239" y="394"/>
      <point x="194" y="473"/>
      <point x="150" y="551"/>
      <point x="109" y="624"/>
      <point x="92" y="654" type="qcurve"/>
      <point x="6" y="654" type="line"/>
      <point x="6" y="714" type="line"/>
      <point x="234" y="714" type="line"/>
      <point x="234" y="654" type="line"/>
      <point x="169" y="654" type="line"/>
      <point x="188" y="620"/>
      <point x="234" y="540"/>
      <point x="281" y="456"/>
      <point x="326" y="374"/>
      <point x="346" y="339" type="qcurve"/>
      <point x="358" y="309" type="line"/>
      <point x="370" y="339" type="line"/>
      <point x="389" y="374"/>
      <point x="434" y="456"/>
      <point x="480" y="540"/>
      <point x="525" y="620"/>
      <point x="544" y="654" type="qcurve"/>
      <point x="480" y="654" type="line"/>
      <point x="480" y="714" type="line"/>
      <point x="706" y="714" type="line"/>
      <point x="706" y="654" type="line"/>
      <point x="623" y="654" type="line"/>
      <point x="392" y="249" type="line"/>
      <point x="392" y="60" type="line"/>
    </contour>
  </outline>
</glyph>
<glyph name="i" format="1">
  <advance width="251"/>
  <unicode hex="0069"/>
  <outline>
    <contour>
      <point x="230" y="0" type="line"/>
      <point x="34" y="0" type="line"/>
      <point x="34" y="48" type="line"/>
      <point x="102" y="48" type="line"/>
      <point x="102" y="351" type="line"/>
      <point x="34" y="351" type="line"/>
      <point x="34" y="400" type="line"/>
      <point x="157" y="400" type="line"/>
      <point x="157" y="48" type="line"/>
      <point x="230" y="48" type="line"/>
    </contour>
    <contour>
      <point x="91" y="545" type="qcurve"/>
      <point x="91" y="562"/>
      <point x="115" y="585"/>
      <point x="131" y="585" type="qcurve"/>
      <point x="145" y="585"/>
      <point x="170" y="562"/>
      <point x="170" y="545" type="qcurve"/>
      <point x="170" y="527"/>
      <point x="145" y="505"/>
      <point x="131" y="505" type="qcurve"/>
      <point x="115" y="505"/>
      <point x="91" y="527"/>
    </contour>
  </outline>
</glyph>
<glyph name="j" format="1">
  <advance width="215"/>
  <unicode hex="006A"/>
  <outline>
    <contour>
      <point x="63" y="-192" type="qcurve"/>
      <point x="24" y="-152" type="line"/>
      <point x="51" y="-126"/>
      <point x="82" y="-53"/>
      <point x="82" y="-3" type="qcurve"/>
      <point x="82" y="351" type="line"/>
      <point x="14" y="351" type="line"/>
      <point x="14" y="400" type="line"/>
      <point x="137" y="400" type="line"/>
      <point x="137" y="-3" type="line"/>
      <point x="137" y="-66"/>
      <point x="98" y="-161"/>
    </contour>
    <contour>
      <point x="72" y="545" type="qcurve"/>
      <point x="72" y="562"/>
      <point x="96" y="585"/>
      <point x="112" y="585" type="qcurve"/>
      <point x="127" y="585"/>
      <point x="151" y="562"/>
      <point x="151" y="545" type="qcurve"/>
      <point x="151" y="527"/>
      <point x="127" y="505"/>
      <point x="112" y="505" type="qcurve"/>
      <point x="96" y="505"/>
      <point x="72" y="527"/>
    </contour>
  </outline>
</glyph>
<glyph name="l" format="1">
  <advance width="242"/>
  <unicode hex="006C"/>
  <outline>
    <contour>
      <point x="148" y="766" type="line"/>
      <point x="148" y="48" type="line"/>
      <point x="221" y="48" type="line"/>
      <point x="221" y="0" type="line"/>
      <point x="25" y="0" type="line"/>
      <point x="25" y="48" type="line"/>
      <point x="93" y="48" type="line"/>
      <point x="93" y="717" type="line"/>
      <point x="25" y="717" type="line"/>
      <point x="25" y="766" type="line"/>
    </contour>
  </outline>
</glyph>
<glyph name="n" format="1">
  <advance width="539"/>
  <unicode hex="006E"/>
  <outline>
    <contour>
      <point x="156" y="212" type="qcurve"/>
      <point x="156" y="48" type="line"/>
      <point x="229" y="48" type="line"/>
      <point x="229" y="0" type="line"/>
      <point x="33" y="0" type="line"/>
      <point x="33" y="48" type="line"/>
      <point x="101" y="48" type="line"/>
      <point x="101" y="351" type="line"/>
      <point x="33" y="351" type="line"/>
      <point x="33" y="400" type="line"/>
      <point x="148" y="400" type="line"/>
      <point x="153" y="297" type="line"/>
      <point x="175" y="347"/>
      <point x="261" y="409"/>
      <point x="321" y="409" type="qcurve"/>
      <point x="380" y="409"/>
      <point x="449" y="343"/>
      <point x="451" y="289" type="qcurve"/>
      <point x="451" y="48" type="line"/>
      <point x="519" y="48" type="line"/>
      <point x="519" y="0" type="line"/>
      <point x="325" y="0" type="line"/>
      <point x="325" y="48" type="line"/>
      <point x="396" y="48" type="line"/>
      <point x="396" y="270" type="line"/>
      <point x="394" y="304"/>
      <point x="350" y="352"/>
      <point x="307" y="354" type="qcurve"/>
      <point x="275" y="354"/>
      <point x="220" y="333"/>
      <point x="180" y="295"/>
      <point x="156" y="243"/>
    </contour>
  </outline>
</glyph>
<glyph name="p" format="1">
  <advance width="554"/>
  <unicode hex="0070"/>
  <outline>
    <contour>
      <point x="23" y="351" type="line"/>
      <point x="23" y="400" type="line"/>
      <point x="145" y="400" type="line"/>
      <point x="145" y="397"/>
      <point x="146" y="377"/>
      <point x="146" y="352"/>
      <point x="147" y="326"/>
      <point x="147" y="316" type="qcurve"/>
      <point x="165" y="353"/>
      <point x="249" y="409"/>
      <point x="308" y="409" type="qcurve"/>
      <point x="352" y="409"/>
      <point x="428" y="378"/>
      <point x="483" y="323"/>
      <point x="514" y="246"/>
      <point x="514" y="200" type="qcurve"/>
      <point x="514" y="156"/>
      <point x="482" y="80"/>
      <point x="427" y="24"/>
      <point x="350" y="-8"/>
      <point x="305" y="-8" type="qcurve"/>
      <point x="249" y="-8"/>
      <point x="163" y="44"/>
      <point x="146" y="82" type="qcurve"/>
      <point x="146" y="-144" type="line"/>
      <point x="219" y="-144" type="line"/>
      <point x="219" y="-193" type="line"/>
      <point x="23" y="-193" type="line"/>
      <point x="23" y="-144" type="line"/>
      <point x="91" y="-144" type="line"/>
      <point x="91" y="351" type="line"/>
    </contour>
    <contour>
      <point x="454" y="200" type="qcurve"/>
      <point x="454" y="233"/>
      <point x="432" y="290"/>
      <point x="392" y="331"/>
      <point x="336" y="355"/>
      <point x="303" y="355" type="qcurve"/>
      <point x="270" y="355"/>
      <point x="213" y="331"/>
      <point x="171" y="290"/>
      <point x="147" y="234"/>
      <point x="147" y="201" type="qcurve"/>
      <point x="147" y="168"/>
      <point x="171" y="112"/>
      <point x="213" y="70"/>
      <point x="270" y="46"/>
      <point x="303" y="46" type="qcurve"/>
      <point x="336" y="46"/>
      <point x="392" y="70"/>
      <point x="432" y="112"/>
      <point x="454" y="168"/>
    </contour>
  </outline>
</glyph>
<glyph name="v" format="1">
  <advance width="479"/>
  <unicode hex="0076"/>
  <outline>
    <contour>
      <point x="6" y="400" type="line"/>
      <point x="169" y="400" type="line"/>
      <point x="169" y="352" type="line"/>
      <point x="121" y="352" type="line"/>
      <point x="139" y="314"/>
      <point x="180" y="222"/>
      <point x="216" y="142"/>
      <point x="240" y="85"/>
      <point x="240" y="81" type="qcurve"/>
      <point x="240" y="85"/>
      <point x="264" y="142"/>
      <point x="299" y="222"/>
      <point x="340" y="314"/>
      <point x="358" y="352" type="qcurve"/>
      <point x="318" y="352" type="line"/>
      <point x="318" y="400" type="line"/>
      <point x="471" y="400" type="line"/>
      <point x="471" y="352" type="line"/>
      <point x="418" y="352" type="line"/>
      <point x="405" y="325"/>
      <point x="373" y="256"/>
      <point x="337" y="181"/>
      <point x="302" y="106"/>
      <point x="271" y="40"/>
      <point x="246" y="-11"/>
      <point x="240" y="-24" type="qcurve"/>
      <point x="229" y="-5"/>
      <point x="185" y="88"/>
      <point x="133" y="199"/>
      <point x="81" y="312"/>
      <point x="62" y="352" type="qcurve"/>
      <point x="6" y="352" type="line"/>
    </contour>
  </outline>
</glyph>
<glyph name="w" format="1">
  <advance width="705"/>
  <unicode hex="0077"/>
  <outline>
    <contour>
      <point x="548" y="400" type="line"/>
      <point x="607" y="400" type="line"/>
      <point x="608" y="400"/>
      <point x="608" y="401" type="qcurve"/>
      <point x="663" y="400" type="line"/>
      <point x="697" y="400" type="line"/>
      <point x="697" y="352" type="line"/>
      <point x="642" y="352" type="line"/>
      <point x="474" y="-24" type="line"/>
      <point x="440" y="48"/>
      <point x="383" y="188"/>
      <point x="349" y="261" type="qcurve"/>
      <point x="318" y="188"/>
      <point x="260" y="48"/>
      <point x="229" y="-24" type="qcurve"/>
      <point x="187" y="71"/>
      <point x="106" y="257"/>
      <point x="65" y="352" type="qcurve"/>
      <point x="6" y="352" type="line"/>
      <point x="6" y="400" type="line"/>
      <point x="169" y="400" type="line"/>
      <point x="169" y="352" type="line"/>
      <point x="121" y="352" type="line"/>
      <point x="140" y="308"/>
      <point x="170" y="237"/>
      <point x="196" y="173"/>
      <point x="218" y="113"/>
      <point x="229" y="81" type="qcurve"/>
      <point x="237" y="102"/>
      <point x="255" y="146"/>
      <point x="277" y="201"/>
      <point x="305" y="270"/>
      <point x="325" y="315" type="qcurve"/>
      <point x="286" y="400" type="line"/>
      <point x="335" y="400" type="line"/>
      <point x="360" y="344"/>
      <point x="401" y="253"/>
      <point x="434" y="175"/>
      <point x="462" y="110"/>
      <point x="474" y="81" type="qcurve"/>
      <point x="484" y="113"/>
      <point x="508" y="173"/>
      <point x="536" y="237"/>
      <point x="568" y="308"/>
      <point x="587" y="352" type="qcurve"/>
      <point x="548" y="352" type="line"/>
    </contour>
  </outline>
</glyph>
<glyph name="x" format="1">
  <advance width="457"/>
  <unicode hex="0078"/>
  <outline>
    <contour>
      <point x="31" y="400" type="line"/>
      <point x="198" y="400" type="line"/>
      <point x="198" y="352" type="line"/>
      <point x="152" y="352" type="line"/>
      <point x="227" y="248" type="line"/>
      <point x="236" y="261"/>
      <point x="265" y="301"/>
      <point x="296" y="344"/>
      <point x="325" y="384"/>
      <point x="335" y="398" type="qcurve"/>
      <point x="335" y="400" type="line"/>
      <point x="426" y="400" type="line"/>
      <point x="426" y="351" type="line"/>
      <point x="359" y="351" type="line"/>
      <point x="255" y="204" type="line"/>
      <point x="368" y="48" type="line"/>
      <point x="436" y="48" type="line"/>
      <point x="436" y="0" type="line"/>
      <point x="249" y="0" type="line"/>
      <point x="249" y="48" type="line"/>
      <point x="303" y="48" type="line"/>
      <point x="280" y="77"/>
      <point x="234" y="139"/>
      <point x="221" y="157" type="qcurve"/>
      <point x="109" y="0" type="line"/>
      <point x="23" y="0" type="line"/>
      <point x="23" y="48" type="line"/>
      <point x="82" y="48" type="line"/>
      <point x="196" y="207" type="line"/>
      <point x="188" y="217"/>
      <point x="164" y="250"/>
      <point x="134" y="290"/>
      <point x="103" y="333"/>
      <point x="89" y="352" type="qcurve"/>
      <point x="31" y="352" type="line"/>
    </contour>
  </outline>
</glyph>
<glyph name="cent" format="1">
  <advance width="436"/>
  <unicode hex="00A2"/>
  <outline>
    <contour>
      <point x="384" y="364" type="qcurve"/>
      <point x="384" y="292" type="line"/>
      <point x="337" y="292" type="line"/>
      <point x="337" y="331" type="line"/>
      <point x="303" y="353"/>
      <point x="256" y="355" type="qcurve"/>
      <point x="256" y="46" type="line"/>
      <point x="283" y="47"/>
      <point x="334" y="64"/>
      <point x="353" y="79" type="qcurve"/>
      <point x="387" y="38" type="line"/>
      <point x="332" y="-5"/>
      <point x="256" y="-8" type="qcurve"/>
      <point x="256" y="-68" type="line"/>
      <point x="214" y="-68" type="line"/>
      <point x="214" y="-5" type="line"/>
      <point x="175" y="1"/>
      <point x="111" y="37"/>
      <point x="65" y="92"/>
      <point x="40" y="161"/>
      <point x="40" y="199" type="qcurve"/>
      <point x="40" y="238"/>
      <point x="67" y="308"/>
      <point x="113" y="363"/>
      <point x="177" y="400"/>
      <point x="214" y="406" type="qcurve"/>
      <point x="214" y="465" type="line"/>
      <point x="256" y="465" type="line"/>
      <point x="256" y="409" type="line"/>
      <point x="330" y="407"/>
    </contour>
    <contour>
      <point x="95" y="201" type="qcurve"/>
      <point x="95" y="144"/>
      <point x="161" y="62"/>
      <point x="214" y="50" type="qcurve"/>
      <point x="214" y="351" type="line"/>
      <point x="161" y="339"/>
      <point x="95" y="257"/>
    </contour>
  </outline>
</glyph>
<glyph name="copyright" format="1">
  <advance width="646"/>
  <unicode hex="00A9"/>
  <outline>
    <contour>
      <point x="323" y="115" type="qcurve"/>
      <point x="269" y="115"/>
      <point x="175" y="154"/>
      <point x="105" y="223"/>
      <point x="65" y="317"/>
      <point x="65" y="372" type="qcurve"/>
      <point x="65" y="428"/>
      <point x="105" y="522"/>
      <point x="175" y="591"/>
      <point x="269" y="630"/>
      <point x="323" y="630" type="qcurve"/>
      <point x="377" y="630"/>
      <point x="471" y="591"/>
      <point x="541" y="522"/>
      <point x="581" y="428"/>
      <point x="581" y="372" type="qcurve"/>
      <point x="581" y="317"/>
      <point x="541" y="223"/>
      <point x="471" y="154"/>
      <point x="377" y="115"/>
    </contour>
    <contour>
      <point x="322" y="138" type="qcurve"/>
      <point x="371" y="138"/>
      <point x="457" y="173"/>
      <point x="520" y="236"/>
      <point x="557" y="321"/>
      <point x="557" y="371" type="qcurve"/>
      <point x="557" y="422"/>
      <point x="520" y="508"/>
      <point x="457" y="571"/>
      <point x="371" y="607"/>
      <point x="322" y="607" type="qcurve"/>
      <point x="274" y="607"/>
      <point x="189" y="571"/>
      <point x="126" y="508"/>
      <point x="89" y="422"/>
      <point x="89" y="371" type="qcurve"/>
      <point x="89" y="321"/>
      <point x="126" y="236"/>
      <point x="189" y="173"/>
      <point x="274" y="138"/>
    </contour>
    <contour>
      <point x="388" y="467" type="line"/>
      <point x="388" y="500" type="line"/>
      <point x="361" y="511"/>
      <point x="333" y="511" type="qcurve"/>
      <point x="304" y="511"/>
      <point x="254" y="489"/>
      <point x="218" y="452"/>
      <point x="197" y="402"/>
      <point x="197" y="375" type="qcurve"/>
      <point x="197" y="348"/>
      <point x="216" y="300"/>
      <point x="251" y="263"/>
      <point x="300" y="241"/>
      <point x="330" y="241" type="qcurve"/>
      <point x="356" y="241"/>
      <point x="399" y="256"/>
      <point x="408" y="263" type="qcurve"/>
      <point x="422" y="235" type="line"/>
      <point x="408" y="226"/>
      <point x="360" y="209"/>
      <point x="329" y="209" type="qcurve"/>
      <point x="291" y="209"/>
      <point x="231" y="235"/>
      <point x="188" y="280"/>
      <point x="165" y="339"/>
      <point x="165" y="372" type="qcurve"/>
      <point x="165" y="408"/>
      <point x="192" y="469"/>
      <point x="237" y="514"/>
      <point x="297" y="540"/>
      <point x="330" y="540" type="qcurve"/>
      <point x="357" y="540"/>
      <point x="403" y="526"/>
      <point x="417" y="517" type="qcurve"/>
      <point x="417" y="467" type="line"/>
    </contour>
  </outline>
</glyph>
<glyph name="threesuperior" format="1">
  <advance width="295"/>
  <unicode hex="00B3"/>
  <outline>
    <contour>
      <point x="70" y="646" type="line"/>
      <point x="70" y="703" type="line"/>
      <point x="236" y="703" type="line"/>
      <point x="153" y="582" type="line"/>
      <point x="190" y="575"/>
      <point x="240" y="521"/>
      <point x="240" y="481" type="qcurve"/>
      <point x="240" y="459"/>
      <point x="223" y="421"/>
      <point x="194" y="392"/>
      <point x="156" y="376"/>
      <point x="134" y="376" type="qcurve"/>
      <point x="111" y="376"/>
      <point x="71" y="395"/>
      <point x="57" y="411" type="qcurve"/>
      <point x="78" y="431" type="line"/>
      <point x="99" y="404"/>
      <point x="133" y="404" type="qcurve"/>
      <point x="149" y="404"/>
      <point x="178" y="417"/>
      <point x="199" y="438"/>
      <point x="211" y="466"/>
      <point x="211" y="481" type="qcurve"/>
      <point x="211" y="513"/>
      <point x="165" y="558"/>
      <point x="133" y="558" type="qcurve"/>
      <point x="117" y="558"/>
      <point x="102" y="548" type="qcurve"/>
      <point x="122" y="580"/>
      <point x="168" y="642"/>
      <point x="188" y="674" type="qcurve"/>
      <point x="98" y="674" type="line"/>
      <point x="98" y="646" type="line"/>
    </contour>
  </outline>
</glyph>
<glyph name="ordmasculine" format="1">
  <advance width="404"/>
  <unicode hex="00BA"/>
  <outline>
    <contour>
      <point x="51" y="450" type="qcurve"/>
      <point x="51" y="482"/>
      <point x="74" y="537"/>
      <point x="115" y="578"/>
      <point x="171" y="602"/>
      <point x="203" y="602" type="qcurve"/>
      <point x="236" y="602"/>
      <point x="291" y="578"/>
      <point x="331" y="537"/>
      <point x="354" y="482"/>
      <point x="354" y="450" type="qcurve"/>
      <point x="354" y="418"/>
      <point x="331" y="364"/>
      <point x="291" y="323"/>
      <point x="235" y="300"/>
      <point x="202" y="300" type="qcurve"/>
      <point x="170" y="300"/>
      <point x="115" y="322"/>
      <point x="74" y="362"/>
      <point x="51" y="417"/>
    </contour>
    <contour>
      <point x="91" y="450" type="qcurve"/>
      <point x="91" y="402"/>
      <point x="154" y="339"/>
      <point x="202" y="339" type="qcurve"/>
      <point x="250" y="339"/>
      <point x="314" y="402"/>
      <point x="314" y="450" type="qcurve"/>
      <point x="314" y="498"/>
      <point x="250" y="562"/>
      <point x="202" y="562" type="qcurve"/>
      <point x="154" y="562"/>
      <point x="91" y="498"/>
    </contour>
  </outline>
</glyph>
<glyph name="onequarter" format="1">
  <advance width="795"/>
  <unicode hex="00BC"/>
  <outline>
    <contour>
      <point x="749" y="42" type="line"/>
      <point x="749" y="0" type="line"/>
      <point x="579" y="0" type="line"/>
      <point x="579" y="42" type="line"/>
      <point x="640" y="42" type="line"/>
      <point x="640" y="130" type="line"/>
      <point x="401" y="130" type="line"/>
      <point x="470" y="220"/>
      <point x="615" y="404"/>
      <point x="684" y="494" type="qcurve"/>
      <point x="684" y="173" type="line"/>
      <point x="756" y="173" type="line"/>
      <point x="756" y="130" type="line"/>
      <point x="684" y="130" type="line"/>
      <point x="684" y="42" type="line"/>
    </contour>
    <contour>
      <point x="187" y="-19" type="line"/>
      <point x="467" y="741" type="line"/>
      <point x="526" y="741" type="line"/>
      <point x="455" y="550"/>
      <point x="317" y="173"/>
      <point x="246" y="-19" type="qcurve"/>
    </contour>
    <contour>
      <point x="39" y="658" type="line"/>
      <point x="39" y="699" type="line"/>
      <point x="142" y="699" type="line"/>
      <point x="142" y="234" type="line"/>
      <point x="99" y="234" type="line"/>
      <point x="99" y="658" type="line"/>
    </contour>
    <contour>
      <point x="640" y="375" type="line"/>
      <point x="485" y="173" type="line"/>
      <point x="640" y="173" type="line"/>
    </contour>
  </outline>
</glyph>
<glyph name="onehalf" format="1">
  <advance width="841"/>
  <unicode hex="00BD"/>
  <outline>
    <contour>
      <point x="591" y="40" type="qcurve"/>
      <point x="759" y="40" type="line"/>
      <point x="759" y="106" type="line"/>
      <point x="802" y="106" type="line"/>
      <point x="802" y="0" type="line"/>
      <point x="490" y="0" type="line"/>
      <point x="535" y="44"/>
      <point x="619" y="129"/>
      <point x="685" y="209"/>
      <point x="724" y="283"/>
      <point x="724" y="316" type="qcurve"/>
      <point x="724" y="347"/>
      <point x="705" y="390"/>
      <point x="676" y="417"/>
      <point x="642" y="429"/>
      <point x="627" y="429" type="qcurve"/>
      <point x="597" y="429"/>
      <point x="558" y="408"/>
      <point x="536" y="377"/>
      <point x="527" y="342"/>
      <point x="527" y="328" type="qcurve"/>
      <point x="527" y="304"/>
      <point x="542" y="265"/>
      <point x="556" y="251" type="qcurve"/>
      <point x="531" y="227" type="line"/>
      <point x="510" y="243"/>
      <point x="486" y="301"/>
      <point x="486" y="328" type="qcurve"/>
      <point x="486" y="357"/>
      <point x="504" y="408"/>
      <point x="540" y="447"/>
      <point x="593" y="469"/>
      <point x="627" y="469" type="qcurve"/>
      <point x="658" y="469"/>
      <point x="709" y="446"/>
      <point x="746" y="407"/>
      <point x="766" y="355"/>
      <point x="766" y="325" type="qcurve"/>
      <point x="766" y="287"/>
      <point x="735" y="214"/>
      <point x="685" y="144"/>
      <point x="622" y="74"/>
    </contour>
    <contour>
      <point x="196" y="-19" type="line"/>
      <point x="476" y="741" type="line"/>
      <point x="535" y="741" type="line"/>
      <point x="464" y="550"/>
      <point x="326" y="173"/>
      <point x="255" y="-19" type="qcurve"/>
    </contour>
    <contour>
      <point x="38" y="658" type="line"/>
      <point x="38" y="699" type="line"/>
      <point x="141" y="699" type="line"/>
      <point x="141" y="234" type="line"/>
      <point x="98" y="234" type="line"/>
      <point x="98" y="658" type="line"/>
    </contour>
  </outline>
</glyph>
<glyph name="Egrave" format="1">
  <advance width="648"/>
  <unicode hex="00C8"/>
  <outline>
    <contour>
      <point x="520" y="580" type="line"/>
      <point x="520" y="652" type="line"/>
      <point x="203" y="652" type="line"/>
      <point x="203" y="391" type="line"/>
      <point x="545" y="391" type="line"/>
      <point x="545" y="327" type="line"/>
      <point x="203" y="327" type="line"/>
      <point x="203" y="64" type="line"/>
      <point x="534" y="64" type="line"/>
      <point x="534" y="140" type="line"/>
      <point x="598" y="140" type="line"/>
      <point x="598" y="0" type="line"/>
      <point x="57" y="0" type="line"/>
      <point x="57" y="60" type="line"/>
      <point x="135" y="60" type="line"/>
      <point x="135" y="654" type="line"/>
      <point x="57" y="654" type="line"/>
      <point x="57" y="714" type="line"/>
      <point x="584" y="714" type="line"/>
      <point x="584" y="580" type="line"/>
    </contour>
    <contour>
      <point x="303" y="891" type="line"/>
      <point x="326" y="857"/>
      <point x="371" y="790"/>
      <point x="394" y="757" type="qcurve"/>
      <point x="350" y="757" type="line"/>
      <point x="243" y="891" type="line"/>
    </contour>
  </outline>
</glyph>
<glyph name="Ecircumflex" format="1">
  <advance width="648"/>
  <unicode hex="00CA"/>
  <outline>
    <contour>
      <point x="520" y="580" type="line"/>
      <point x="520" y="652" type="line"/>
      <point x="203" y="652" type="line"/>
      <point x="203" y="391" type="line"/>
      <point x="545" y="391" type="line"/>
      <point x="545" y="327" type="line"/>
      <point x="203" y="327" type="line"/>
      <point x="203" y="64" type="line"/>
      <point x="534" y="64" type="line"/>
      <point x="534" y="140" type="line"/>
      <point x="598" y="140" type="line"/>
      <point x="598" y="0" type="line"/>
      <point x="57" y="0" type="line"/>
      <point x="57" y="60" type="line"/>
      <point x="135" y="60" type="line"/>
      <point x="135" y="654" type="line"/>
      <point x="57" y="654" type="line"/>
      <point x="57" y="714" type="line"/>
      <point x="584" y="714" type="line"/>
      <point x="584" y="580" type="line"/>
    </contour>
    <contour>
      <point x="337" y="891" type="qcurve"/>
      <point x="365" y="860"/>
      <point x="390" y="833" type="qcurve"/>
      <point x="411" y="810"/>
      <point x="450" y="765"/>
      <point x="458" y="757" type="qcurve"/>
      <point x="414" y="757" type="line"/>
      <point x="337" y="827" type="line"/>
      <point x="259" y="757" type="line"/>
      <point x="216" y="757" type="line"/>
      <point x="222" y="765"/>
      <point x="262" y="809"/>
      <point x="283" y="832" type="qcurve"/>
      <point x="308" y="859"/>
    </contour>
  </outline>
</glyph>
<glyph name="Iacute" format="1">
  <advance width="338"/>
  <unicode hex="00CD"/>
  <outline>
    <contour>
      <point x="284" y="714" type="line"/>
      <point x="284" y="654" type="line"/>
      <point x="203" y="654" type="line"/>
      <point x="203" y="60" type="line"/>
      <point x="284" y="60" type="line"/>
      <point x="284" y="0" type="line"/>
      <point x="56" y="0" type="line"/>
      <point x="56" y="60" type="line"/>
      <point x="135" y="60" type="line"/>
      <point x="135" y="654" type="line"/>
      <point x="56" y="654" type="line"/>
      <point x="56" y="714" type="line"/>
    </contour>
    <contour>
      <point x="96" y="757" type="line"/>
      <point x="187" y="891" type="line"/>
      <point x="246" y="891" type="line"/>
      <point x="220" y="857"/>
      <point x="166" y="790"/>
      <point x="139" y="757" type="qcurve"/>
    </contour>
  </outline>
</glyph>
<glyph name="Eth" format="1">
  <advance width="746"/>
  <unicode hex="00D0"/>
  <outline>
    <contour>
      <point x="68" y="378" type="line"/>
      <point x="136" y="378" type="line"/>
      <point x="136" y="654" type="line"/>
      <point x="58" y="654" type="line"/>
      <point x="58" y="714" type="line"/>
      <point x="301" y="714" type="line"/>
      <point x="409" y="714"/>
      <point x="559" y="648"/>
      <point x="653" y="544"/>
      <point x="695" y="415"/>
      <point x="695" y="352" type="qcurve"/>
      <point x="695" y="271"/>
      <point x="638" y="141"/>
      <point x="540" y="49"/>
      <point x="409" y="0"/>
      <point x="336" y="0" type="qcurve"/>
      <point x="58" y="0" type="line"/>
      <point x="58" y="60" type="line"/>
      <point x="136" y="60" type="line"/>
      <point x="136" y="330" type="line"/>
      <point x="68" y="330" type="line"/>
    </contour>
    <contour>
      <point x="330" y="65" type="line"/>
      <point x="392" y="65"/>
      <point x="500" y="105"/>
      <point x="581" y="180"/>
      <point x="627" y="288"/>
      <point x="627" y="356" type="qcurve"/>
      <point x="627" y="418"/>
      <point x="584" y="525"/>
      <point x="504" y="603"/>
      <point x="392" y="648"/>
      <point x="322" y="648" type="qcurve"/>
      <point x="204" y="648" type="line"/>
      <point x="204" y="378" type="line"/>
      <point x="384" y="378" type="line"/>
      <point x="384" y="330" type="line"/>
      <point x="204" y="330" type="line"/>
      <point x="204" y="65" type="line"/>
    </contour>
  </outline>
</glyph>
<glyph name="Odieresis" format="1">
  <advance width="828"/>
  <unicode hex="00D6"/>
  <outline>
    <contour>
      <point x="49" y="356" type="qcurve"/>
      <point x="49" y="431"/>
      <point x="106" y="564"/>
      <point x="205" y="664"/>
      <point x="338" y="722"/>
      <point x="413" y="722" type="qcurve"/>
      <point x="488" y="722"/>
      <point x="622" y="664"/>
      <point x="721" y="564"/>
      <point x="779" y="431"/>
      <point x="779" y="356" type="qcurve"/>
      <point x="779" y="281"/>
      <point x="721" y="148"/>
      <point x="622" y="49"/>
      <point x="488" y="-8"/>
      <point x="413" y="-8" type="qcurve"/>
      <point x="338" y="-8"/>
      <point x="205" y="49"/>
      <point x="106" y="148"/>
      <point x="49" y="281"/>
    </contour>
    <contour>
      <point x="117" y="356" type="qcurve"/>
      <point x="117" y="294"/>
      <point x="164" y="185"/>
      <point x="244" y="104"/>
      <point x="352" y="57"/>
      <point x="413" y="57" type="qcurve"/>
      <point x="474" y="57"/>
      <point x="583" y="104"/>
      <point x="664" y="185"/>
      <point x="711" y="294"/>
      <point x="711" y="356" type="qcurve"/>
      <point x="711" y="418"/>
      <point x="664" y="527"/>
      <point x="583" y="609"/>
      <point x="474" y="656"/>
      <point x="413" y="656" type="qcurve"/>
      <point x="351" y="656"/>
      <point x="244" y="609"/>
      <point x="163" y="527"/>
      <point x="117" y="418"/>
    </contour>
    <contour>
      <point x="464" y="803" type="qcurve"/>
      <point x="464" y="820"/>
      <point x="488" y="844"/>
      <point x="504" y="844" type="qcurve"/>
      <point x="519" y="844"/>
      <point x="544" y="820"/>
      <point x="544" y="803" type="qcurve"/>
      <point x="544" y="785"/>
      <point x="519" y="762"/>
      <point x="504" y="762" type="qcurve"/>
      <point x="488" y="762"/>
      <point x="464" y="785"/>
    </contour>
    <contour>
      <point x="285" y="803" type="qcurve"/>
      <point x="285" y="820"/>
      <point x="309" y="844"/>
      <point x="325" y="844" type="qcurve"/>
      <point x="340" y="844"/>
      <point x="365" y="820"/>
      <point x="365" y="803" type="qcurve"/>
      <point x="365" y="785"/>
      <point x="340" y="762"/>
      <point x="325" y="762" type="qcurve"/>
      <point x="309" y="762"/>
      <point x="285" y="785"/>
    </contour>
  </outline>
</glyph>
<glyph name="atilde" format="1">
  <advance width="553"/>
  <unicode hex="00E3"/>
  <outline>
    <contour>
      <point x="461" y="48" type="line"/>
      <point x="529" y="48" type="line"/>
      <point x="529" y="0" type="line"/>
      <point x="406" y="0" type="line"/>
      <point x="406" y="81" type="line"/>
      <point x="399" y="64"/>
      <point x="371" y="33"/>
      <point x="331" y="7"/>
      <point x="279" y="-8"/>
      <point x="248" y="-8" type="qcurve"/>
      <point x="203" y="-8"/>
      <point x="126" y="25"/>
      <point x="71" y="81"/>
      <point x="39" y="156"/>
      <point x="39" y="198" type="qcurve"/>
      <point x="39" y="241"/>
      <point x="72" y="318"/>
      <point x="129" y="376"/>
      <point x="204" y="409"/>
      <point x="247" y="409" type="qcurve"/>
      <point x="277" y="409"/>
      <point x="330" y="393"/>
      <point x="371" y="366"/>
      <point x="399" y="333"/>
      <point x="406" y="317" type="qcurve"/>
      <point x="406" y="337"/>
      <point x="408" y="379"/>
      <point x="410" y="400" type="qcurve"/>
      <point x="461" y="400" type="line"/>
    </contour>
    <contour>
      <point x="93" y="201" type="qcurve"/>
      <point x="93" y="168"/>
      <point x="117" y="112"/>
      <point x="159" y="70"/>
      <point x="216" y="46"/>
      <point x="249" y="46" type="qcurve"/>
      <point x="282" y="46"/>
      <point x="339" y="70"/>
      <point x="381" y="112"/>
      <point x="405" y="168"/>
      <point x="405" y="201" type="qcurve"/>
      <point x="405" y="233"/>
      <point x="381" y="289"/>
      <point x="339" y="331"/>
      <point x="282" y="355"/>
      <point x="249" y="355" type="qcurve"/>
      <point x="216" y="355"/>
      <point x="159" y="331"/>
      <point x="117" y="290"/>
      <point x="93" y="234"/>
    </contour>
    <contour>
      <point x="265" y="502" type="qcurve"/>
      <point x="249" y="519"/>
      <point x="226" y="530"/>
      <point x="212" y="530" type="qcurve"/>
      <point x="204" y="530"/>
      <point x="186" y="526"/>
      <point x="168" y="515"/>
      <point x="155" y="495"/>
      <point x="153" y="480" type="qcurve"/>
      <point x="120" y="482" type="line"/>
      <point x="121" y="502"/>
      <point x="138" y="532"/>
      <point x="163" y="553"/>
      <point x="193" y="563"/>
      <point x="208" y="563" type="qcurve"/>
      <point x="231" y="563"/>
      <point x="267" y="545"/>
      <point x="283" y="528" type="qcurve"/>
      <point x="299" y="511"/>
      <point x="322" y="500"/>
      <point x="336" y="500" type="qcurve"/>
      <point x="343" y="500"/>
      <point x="362" y="504"/>
      <point x="380" y="515"/>
      <point x="393" y="535"/>
      <point x="395" y="550" type="qcurve"/>
      <point x="428" y="548" type="line"/>
      <point x="427" y="528"/>
      <point x="410" y="498"/>
      <point x="385" y="477"/>
      <point x="355" y="467"/>
      <point x="340" y="467" type="qcurve"/>
      <point x="317" y="467"/>
      <point x="281" y="486"/>
    </contour>
  </outline>
</glyph>
<glyph name="icircumflex" format="1">
  <advance width="251"/>
  <unicode hex="00EE"/>
  <outline>
    <contour>
      <point x="157" y="400" type="line"/>
      <point x="157" y="48" type="line"/>
      <point x="230" y="48" type="line"/>
      <point x="230" y="0" type="line"/>
      <point x="34" y="0" type="line"/>
      <point x="34" y="48" type="line"/>
      <point x="102" y="48" type="line"/>
      <point x="102" y="351" type="line"/>
      <point x="34" y="351" type="line"/>
      <point x="34" y="400" type="line"/>
    </contour>
    <contour>
      <point x="129" y="617" type="qcurve"/>
      <point x="157" y="586"/>
      <point x="182" y="559" type="qcurve"/>
      <point x="203" y="536"/>
      <point x="242" y="491"/>
      <point x="250" y="483" type="qcurve"/>
      <point x="206" y="483" type="line"/>
      <point x="129" y="553" type="line"/>
      <point x="51" y="483" type="line"/>
      <point x="8" y="483" type="line"/>
      <point x="14" y="491"/>
      <point x="54" y="535"/>
      <point x="75" y="558" type="qcurve"/>
      <point x="100" y="585"/>
    </contour>
  </outline>
</glyph>
<glyph name="idieresis" format="1">
  <advance width="251"/>
  <unicode hex="00EF"/>
  <outline>
    <contour>
      <point x="157" y="400" type="line"/>
      <point x="157" y="48" type="line"/>
      <point x="230" y="48" type="line"/>
      <point x="230" y="0" type="line"/>
      <point x="34" y="0" type="line"/>
      <point x="34" y="48" type="line"/>
      <point x="102" y="48" type="line"/>
      <point x="102" y="351" type="line"/>
      <point x="34" y="351" type="line"/>
      <point x="34" y="400" type="line"/>
    </contour>
    <contour>
      <point x="-1" y="517" type="qcurve"/>
      <point x="-1" y="534"/>
      <point x="23" y="558"/>
      <point x="39" y="558" type="qcurve"/>
      <point x="54" y="558"/>
      <point x="79" y="534"/>
      <point x="79" y="517" type="qcurve"/>
      <point x="79" y="499"/>
      <point x="54" y="476"/>
      <point x="39" y="476" type="qcurve"/>
      <point x="23" y="476"/>
      <point x="-1" y="499"/>
    </contour>
    <contour>
      <point x="178" y="517" type="qcurve"/>
      <point x="178" y="534"/>
      <point x="202" y="558"/>
      <point x="218" y="558" type="qcurve"/>
      <point x="233" y="558"/>
      <point x="258" y="534"/>
      <point x="258" y="517" type="qcurve"/>
      <point x="258" y="499"/>
      <point x="233" y="476"/>
      <point x="218" y="476" type="qcurve"/>
      <point x="202" y="476"/>
      <point x="178" y="499"/>
    </contour>
  </outline>
</glyph>
<glyph name="eth" format="1">
  <advance width="510"/>
  <unicode hex="00F0"/>
  <outline>
    <contour>
      <point x="39" y="200" type="qcurve"/>
      <point x="39" y="244"/>
      <point x="71" y="321"/>
      <point x="128" y="378"/>
      <point x="205" y="410"/>
      <point x="250" y="410" type="qcurve"/>
      <point x="283" y="410"/>
      <point x="343" y="392"/>
      <point x="368" y="375" type="qcurve"/>
      <point x="352" y="426"/>
      <point x="287" y="548"/>
      <point x="233" y="614" type="qcurve"/>
      <point x="166" y="543" type="line"/>
      <point x="135" y="572" type="line"/>
      <point x="169" y="611"/>
      <point x="206" y="649" type="qcurve"/>
      <point x="183" y="675"/>
      <point x="133" y="723"/>
      <point x="107" y="744" type="qcurve"/>
      <point x="139" y="775" type="line"/>
      <point x="165" y="755"/>
      <point x="214" y="710"/>
      <point x="238" y="684" type="qcurve"/>
      <point x="254" y="701"/>
      <point x="285" y="735"/>
      <point x="301" y="753" type="qcurve"/>
      <point x="332" y="725" type="line"/>
      <point x="265" y="651" type="line"/>
      <point x="304" y="603"/>
      <point x="375" y="493"/>
      <point x="428" y="376"/>
      <point x="460" y="259"/>
      <point x="460" y="204" type="qcurve"/>
      <point x="460" y="200"/>
      <point x="459" y="193"/>
      <point x="459" y="191" type="qcurve"/>
      <point x="457" y="149"/>
      <point x="424" y="76"/>
      <point x="368" y="22"/>
      <point x="293" y="-8"/>
      <point x="248" y="-8" type="qcurve"/>
      <point x="204" y="-8"/>
      <point x="128" y="23"/>
      <point x="71" y="78"/>
      <point x="39" y="154"/>
    </contour>
    <contour>
      <point x="94" y="200" type="qcurve"/>
      <point x="94" y="167"/>
      <point x="118" y="111"/>
      <point x="159" y="70"/>
      <point x="215" y="46"/>
      <point x="248" y="46" type="qcurve"/>
      <point x="281" y="46"/>
      <point x="337" y="70"/>
      <point x="379" y="111"/>
      <point x="403" y="167"/>
      <point x="403" y="200" type="qcurve"/>
      <point x="403" y="233"/>
      <point x="379" y="289"/>
      <point x="337" y="331"/>
      <point x="281" y="355"/>
      <point x="248" y="355" type="qcurve"/>
      <point x="215" y="355"/>
      <point x="159" y="331"/>
      <point x="118" y="289"/>
      <point x="94" y="233"/>
    </contour>
  </outline>
</glyph>
<glyph name="ntilde" format="1">
  <advance width="539"/>
  <unicode hex="00F1"/>
  <outline>
    <contour>
      <point x="451" y="289" type="qcurve"/>
      <point x="451" y="48" type="line"/>
      <point x="519" y="48" type="line"/>
      <point x="519" y="0" type="line"/>
      <point x="325" y="0" type="line"/>
      <point x="325" y="48" type="line"/>
      <point x="396" y="48" type="line"/>
      <point x="396" y="270" type="line"/>
      <point x="394" y="304"/>
      <point x="350" y="352"/>
      <point x="307" y="354" type="qcurve"/>
      <point x="275" y="354"/>
      <point x="220" y="333"/>
      <point x="180" y="295"/>
      <point x="156" y="243"/>
      <point x="156" y="212" type="qcurve"/>
      <point x="156" y="48" type="line"/>
      <point x="229" y="48" type="line"/>
      <point x="229" y="0" type="line"/>
      <point x="33" y="0" type="line"/>
      <point x="33" y="48" type="line"/>
      <point x="101" y="48" type="line"/>
      <point x="101" y="351" type="line"/>
      <point x="33" y="351" type="line"/>
      <point x="33" y="400" type="line"/>
      <point x="148" y="400" type="line"/>
      <point x="153" y="297" type="line"/>
      <point x="175" y="347"/>
      <point x="261" y="409"/>
      <point x="321" y="409" type="qcurve"/>
      <point x="380" y="409"/>
      <point x="449" y="343"/>
    </contour>
    <contour>
      <point x="281" y="499" type="qcurve"/>
      <point x="265" y="516"/>
      <point x="242" y="527"/>
      <point x="228" y="527" type="qcurve"/>
      <point x="220" y="527"/>
      <point x="202" y="523"/>
      <point x="184" y="512"/>
      <point x="171" y="492"/>
      <point x="169" y="477" type="qcurve"/>
      <point x="136" y="479" type="line"/>
      <point x="137" y="499"/>
      <point x="154" y="529"/>
      <point x="179" y="550"/>
      <point x="209" y="560"/>
      <point x="224" y="560" type="qcurve"/>
      <point x="247" y="560"/>
      <point x="283" y="542"/>
      <point x="299" y="525" type="qcurve"/>
      <point x="315" y="508"/>
      <point x="338" y="497"/>
      <point x="352" y="497" type="qcurve"/>
      <point x="359" y="497"/>
      <point x="378" y="501"/>
      <point x="396" y="512"/>
      <point x="409" y="532"/>
      <point x="411" y="547" type="qcurve"/>
      <point x="444" y="545" type="line"/>
      <point x="443" y="525"/>
      <point x="426" y="495"/>
      <point x="401" y="474"/>
      <point x="371" y="464"/>
      <point x="356" y="464" type="qcurve"/>
      <point x="333" y="464"/>
      <point x="297" y="483"/>
    </contour>
  </outline>
</glyph>
<glyph name="otilde" format="1">
  <advance width="498"/>
  <unicode hex="00F5"/>
  <outline>
    <contour>
      <point x="39" y="200" type="qcurve"/>
      <point x="39" y="244"/>
      <point x="71" y="321"/>
      <point x="128" y="378"/>
      <point x="205" y="410"/>
      <point x="250" y="410" type="qcurve"/>
      <point x="295" y="410"/>
      <point x="372" y="378"/>
      <point x="427" y="321"/>
      <point x="459" y="244"/>
      <point x="459" y="200" type="qcurve"/>
      <point x="459" y="156"/>
      <point x="427" y="80"/>
      <point x="371" y="24"/>
      <point x="294" y="-8"/>
      <point x="248" y="-8" type="qcurve"/>
      <point x="204" y="-8"/>
      <point x="128" y="23"/>
      <point x="71" y="78"/>
      <point x="39" y="154"/>
    </contour>
    <contour>
      <point x="94" y="200" type="qcurve"/>
      <point x="94" y="167"/>
      <point x="118" y="111"/>
      <point x="159" y="70"/>
      <point x="215" y="46"/>
      <point x="248" y="46" type="qcurve"/>
      <point x="281" y="46"/>
      <point x="337" y="70"/>
      <point x="379" y="111"/>
      <point x="403" y="167"/>
      <point x="403" y="200" type="qcurve"/>
      <point x="403" y="233"/>
      <point x="379" y="289"/>
      <point x="337" y="331"/>
      <point x="281" y="355"/>
      <point x="248" y="355" type="qcurve"/>
      <point x="215" y="355"/>
      <point x="159" y="331"/>
      <point x="118" y="289"/>
      <point x="94" y="233"/>
    </contour>
    <contour>
      <point x="242" y="499" type="qcurve"/>
      <point x="226" y="516"/>
      <point x="203" y="527"/>
      <point x="189" y="527" type="qcurve"/>
      <point x="181" y="527"/>
      <point x="163" y="523"/>
      <point x="145" y="512"/>
      <point x="132" y="492"/>
      <point x="130" y="477" type="qcurve"/>
      <point x="97" y="479" type="line"/>
      <point x="98" y="499"/>
      <point x="115" y="529"/>
      <point x="140" y="550"/>
      <point x="170" y="560"/>
      <point x="185" y="560" type="qcurve"/>
      <point x="208" y="560"/>
      <point x="244" y="542"/>
      <point x="260" y="525" type="qcurve"/>
      <point x="276" y="508"/>
      <point x="299" y="497"/>
      <point x="313" y="497" type="qcurve"/>
      <point x="320" y="497"/>
      <point x="339" y="501"/>
      <point x="357" y="512"/>
      <point x="370" y="532"/>
      <point x="372" y="547" type="qcurve"/>
      <point x="405" y="545" type="line"/>
      <point x="404" y="525"/>
      <point x="387" y="495"/>
      <point x="362" y="474"/>
      <point x="332" y="464"/>
      <point x="317" y="464" type="qcurve"/>
      <point x="294" y="464"/>
      <point x="258" y="483"/>
    </contour>
  </outline>
</glyph>
<glyph name="odieresis" format="1">
  <advance width="498"/>
  <unicode hex="00F6"/>
  <outline>
    <contour>
      <point x="39" y="200" type="qcurve"/>
      <point x="39" y="244"/>
      <point x="71" y="321"/>
      <point x="128" y="378"/>
      <point x="205" y="410"/>
      <point x="250" y="410" type="qcurve"/>
      <point x="295" y="410"/>
      <point x="372" y="378"/>
      <point x="427" y="321"/>
      <point x="459" y="244"/>
      <point x="459" y="200" type="qcurve"/>
      <point x="459" y="156"/>
      <point x="427" y="80"/>
      <point x="371" y="24"/>
      <point x="294" y="-8"/>
      <point x="248" y="-8" type="qcurve"/>
      <point x="204" y="-8"/>
      <point x="128" y="23"/>
      <point x="71" y="78"/>
      <point x="39" y="154"/>
    </contour>
    <contour>
      <point x="94" y="200" type="qcurve"/>
      <point x="94" y="167"/>
      <point x="118" y="111"/>
      <point x="159" y="70"/>
      <point x="215" y="46"/>
      <point x="248" y="46" type="qcurve"/>
      <point x="281" y="46"/>
      <point x="337" y="70"/>
      <point x="379" y="111"/>
      <point x="403" y="167"/>
      <point x="403" y="200" type="qcurve"/>
      <point x="403" y="233"/>
      <point x="379" y="289"/>
      <point x="337" y="331"/>
      <point x="281" y="355"/>
      <point x="248" y="355" type="qcurve"/>
      <point x="215" y="355"/>
      <point x="159" y="331"/>
      <point x="118" y="289"/>
      <point x="94" y="233"/>
    </contour>
    <contour>
      <point x="301" y="517" type="qcurve"/>
      <point x="301" y="534"/>
      <point x="325" y="558"/>
      <point x="341" y="558" type="qcurve"/>
      <point x="356" y="558"/>
      <point x="381" y="534"/>
      <point x="381" y="517" type="qcurve"/>
      <point x="381" y="499"/>
      <point x="356" y="476"/>
      <point x="341" y="476" type="qcurve"/>
      <point x="325" y="476"/>
      <point x="301" y="499"/>
    </contour>
    <contour>
      <point x="122" y="517" type="qcurve"/>
      <point x="122" y="534"/>
      <point x="146" y="558"/>
      <point x="162" y="558" type="qcurve"/>
      <point x="177" y="558"/>
      <point x="202" y="534"/>
      <point x="202" y="517" type="qcurve"/>
      <point x="202" y="499"/>
      <point x="177" y="476"/>
      <point x="162" y="476" type="qcurve"/>
      <point x="146" y="476"/>
      <point x="122" y="499"/>
    </contour>
  </outline>
</glyph>
<glyph name="Aogonek" format="1">
  <advance width="736"/>
  <unicode hex="0104"/>
  <outline>
    <contour>
      <point x="84" y="60" type="line"/>
      <point x="368" y="747" type="line"/>
      <point x="652" y="60" type="line"/>
      <point x="734" y="60" type="line"/>
      <point x="734" y="0" type="line"/>
      <point x="648" y="0" type="line"/>
      <point x="648" y="-28" type="line"/>
      <point x="648" y="-46"/>
      <point x="625" y="-67"/>
      <point x="596" y="-86"/>
      <point x="573" y="-112"/>
      <point x="573" y="-135" type="qcurve"/>
      <point x="573" y="-161"/>
      <point x="604" y="-197"/>
      <point x="631" y="-197" type="qcurve"/>
      <point x="652" y="-197"/>
      <point x="682" y="-174"/>
      <point x="687" y="-156" type="qcurve"/>
      <point x="703" y="-163"/>
      <point x="722" y="-173" type="qcurve"/>
      <point x="711" y="-208"/>
      <point x="658" y="-242"/>
      <point x="626" y="-242" type="qcurve"/>
      <point x="581" y="-242"/>
      <point x="528" y="-184"/>
      <point x="528" y="-138" type="qcurve"/>
      <point x="528" y="-117"/>
      <point x="546" y="-77"/>
      <point x="568" y="-61" type="qcurve"/>
      <point x="574" y="-57"/>
      <point x="589" y="-49"/>
      <point x="602" y="-38"/>
      <point x="610" y="-21"/>
      <point x="610" y="-7" type="qcurve"/>
      <point x="610" y="0" type="line"/>
      <point x="506" y="0" type="line"/>
      <point x="506" y="60" type="line"/>
      <point x="584" y="60" type="line"/>
      <point x="505" y="255" type="line"/>
      <point x="230" y="255" type="line"/>
      <point x="152" y="60" type="line"/>
      <point x="232" y="60" type="line"/>
      <point x="232" y="0" type="line"/>
      <point x="4" y="0" type="line"/>
      <point x="4" y="60" type="line"/>
    </contour>
    <contour>
      <point x="254" y="314" type="line"/>
      <point x="481" y="314" type="line"/>
      <point x="378" y="572" type="line"/>
      <point x="376" y="578"/>
      <point x="374" y="583" type="qcurve"/>
      <point x="372" y="588"/>
      <point x="369" y="598"/>
      <point x="368" y="603" type="qcurve"/>
      <point x="366" y="598"/>
      <point x="364" y="588"/>
      <point x="362" y="583" type="qcurve"/>
      <point x="360" y="578"/>
      <point x="358" y="572" type="qcurve"/>
    </contour>
  </outline>
</glyph>
<glyph name="Dcaron" format="1">
  <advance width="745"/>
  <unicode hex="010E"/>
  <outline>
    <contour>
      <point x="300" y="714" type="line"/>
      <point x="408" y="714"/>
      <point x="558" y="648"/>
      <point x="652" y="544"/>
      <point x="694" y="415"/>
      <point x="694" y="352" type="qcurve"/>
      <point x="694" y="271"/>
      <point x="637" y="141"/>
      <point x="539" y="49"/>
      <point x="408" y="0"/>
      <point x="335" y="0" type="qcurve"/>
      <point x="57" y="0" type="line"/>
      <point x="57" y="60" type="line"/>
      <point x="135" y="60" type="line"/>
      <point x="135" y="654" type="line"/>
      <point x="57" y="654" type="line"/>
      <point x="57" y="714" type="line"/>
    </contour>
    <contour>
      <point x="329" y="65" type="line"/>
      <point x="391" y="65"/>
      <point x="499" y="105"/>
      <point x="580" y="180"/>
      <point x="626" y="288"/>
      <point x="626" y="356" type="qcurve"/>
      <point x="626" y="418"/>
      <point x="583" y="525"/>
      <point x="503" y="603"/>
      <point x="391" y="648"/>
      <point x="321" y="648" type="qcurve"/>
      <point x="203" y="648" type="line"/>
      <point x="203" y="65" type="line"/>
    </contour>
    <contour>
      <point x="347" y="757" type="qcurve"/>
      <point x="318" y="789"/>
      <point x="293" y="816" type="qcurve"/>
      <point x="272" y="839"/>
      <point x="232" y="883"/>
      <point x="226" y="891" type="qcurve"/>
      <point x="269" y="891" type="line"/>
      <point x="347" y="821" type="line"/>
      <point x="424" y="891" type="line"/>
      <point x="468" y="891" type="line"/>
      <point x="460" y="882"/>
      <point x="421" y="838"/>
      <point x="400" y="815" type="qcurve"/>
      <point x="375" y="788"/>
    </contour>
  </outline>
</glyph>
<glyph name="Eogonek" format="1">
  <advance width="647"/>
  <unicode hex="0118"/>
  <outline>
    <contour>
      <point x="519" y="580" type="line"/>
      <point x="519" y="652" type="line"/>
      <point x="202" y="652" type="line"/>
      <point x="202" y="391" type="line"/>
      <point x="544" y="391" type="line"/>
      <point x="544" y="327" type="line"/>
      <point x="202" y="327" type="line"/>
      <point x="202" y="64" type="line"/>
      <point x="533" y="64" type="line"/>
      <point x="533" y="140" type="line"/>
      <point x="597" y="140" type="line"/>
      <point x="597" y="0" type="line"/>
      <point x="56" y="0" type="line"/>
      <point x="56" y="60" type="line"/>
      <point x="134" y="60" type="line"/>
      <point x="134" y="654" type="line"/>
      <point x="56" y="654" type="line"/>
      <point x="56" y="714" type="line"/>
      <point x="583" y="714" type="line"/>
      <point x="583" y="580" type="line"/>
    </contour>
    <contour>
      <point x="598" y="0" type="line"/>
      <point x="560" y="0" type="line"/>
      <point x="560" y="-7" type="line"/>
      <point x="560" y="-21"/>
      <point x="552" y="-38"/>
      <point x="539" y="-49"/>
      <point x="524" y="-57"/>
      <point x="518" y="-61" type="qcurve"/>
      <point x="496" y="-77"/>
      <point x="478" y="-117"/>
      <point x="478" y="-138" type="qcurve"/>
      <point x="478" y="-184"/>
      <point x="531" y="-242"/>
      <point x="576" y="-242" type="qcurve"/>
      <point x="608" y="-242"/>
      <point x="661" y="-208"/>
      <point x="672" y="-173" type="qcurve"/>
      <point x="653" y="-163"/>
      <point x="637" y="-156" type="qcurve"/>
      <point x="632" y="-174"/>
      <point x="602" y="-197"/>
      <point x="581" y="-197" type="qcurve"/>
      <point x="554" y="-197"/>
      <point x="523" y="-161"/>
      <point x="523" y="-135" type="qcurve"/>
      <point x="523" y="-112"/>
      <point x="546" y="-86"/>
      <point x="575" y="-67"/>
      <point x="598" y="-46"/>
      <point x="598" y="-28" type="qcurve"/>
    </contour>
  </outline>
</glyph>
<glyph name="Gbreve" format="1">
  <advance width="688"/>
  <unicode hex="011E"/>
  <outline>
    <contour>
      <point x="553" y="562" type="line"/>
      <point x="553" y="630" type="line"/>
      <point x="522" y="644"/>
      <point x="451" y="658"/>
      <point x="419" y="658" type="qcurve"/>
      <point x="358" y="658"/>
      <point x="249" y="610"/>
      <point x="166" y="528"/>
      <point x="118" y="417"/>
      <point x="118" y="354" type="qcurve"/>
      <point x="118" y="293"/>
      <point x="161" y="185"/>
      <point x="239" y="104"/>
      <point x="349" y="57"/>
      <point x="416" y="57" type="qcurve"/>
      <point x="448" y="57"/>
      <point x="523" y="72"/>
      <point x="555" y="87" type="qcurve"/>
      <point x="555" y="267" type="line"/>
      <point x="401" y="267" type="line"/>
      <point x="401" y="327" type="line"/>
      <point x="618" y="327" type="line"/>
      <point x="618" y="43" type="line"/>
      <point x="577" y="19"/>
      <point x="472" y="-8"/>
      <point x="416" y="-8" type="qcurve"/>
      <point x="332" y="-8"/>
      <point x="197" y="47"/>
      <point x="102" y="143"/>
      <point x="50" y="273"/>
      <point x="50" y="349" type="qcurve"/>
      <point x="50" y="429"/>
      <point x="110" y="566"/>
      <point x="211" y="666"/>
      <point x="344" y="722"/>
      <point x="418" y="722" type="qcurve"/>
      <point x="471" y="722"/>
      <point x="579" y="694"/>
      <point x="617" y="671" type="qcurve"/>
      <point x="617" y="562" type="line"/>
    </contour>
    <contour>
      <point x="408" y="755" type="qcurve"/>
      <point x="375" y="755"/>
      <point x="316" y="779"/>
      <point x="272" y="821"/>
      <point x="246" y="879"/>
      <point x="245" y="912" type="qcurve"/>
      <point x="279" y="912" type="line"/>
      <point x="280" y="886"/>
      <point x="300" y="842"/>
      <point x="334" y="808"/>
      <point x="381" y="789"/>
      <point x="408" y="789" type="qcurve"/>
      <point x="464" y="789"/>
      <point x="532" y="861"/>
      <point x="534" y="912" type="qcurve"/>
      <point x="569" y="912" type="line"/>
      <point x="569" y="879"/>
      <point x="543" y="821"/>
      <point x="499" y="779"/>
      <point x="441" y="755"/>
    </contour>
  </outline>
</glyph>
<glyph name="uni0122" format="1">
  <advance width="688"/>
  <unicode hex="0122"/>
  <outline>
    <contour>
      <point x="553" y="562" type="line"/>
      <point x="553" y="630" type="line"/>
      <point x="522" y="644"/>
      <point x="451" y="658"/>
      <point x="419" y="658" type="qcurve"/>
      <point x="358" y="658"/>
      <point x="249" y="610"/>
      <point x="166" y="528"/>
      <point x="118" y="417"/>
      <point x="118" y="354" type="qcurve"/>
      <point x="118" y="293"/>
      <point x="161" y="185"/>
      <point x="239" y="104"/>
      <point x="349" y="57"/>
      <point x="416" y="57" type="qcurve"/>
      <point x="448" y="57"/>
      <point x="523" y="72"/>
      <point x="555" y="87" type="qcurve"/>
      <point x="555" y="267" type="line"/>
      <point x="401" y="267" type="line"/>
      <point x="401" y="327" type="line"/>
      <point x="618" y="327" type="line"/>
      <point x="618" y="43" type="line"/>
      <point x="577" y="19"/>
      <point x="472" y="-8"/>
      <point x="416" y="-8" type="qcurve"/>
      <point x="332" y="-8"/>
      <point x="197" y="47"/>
      <point x="102" y="143"/>
      <point x="50" y="273"/>
      <point x="50" y="349" type="qcurve"/>
      <point x="50" y="429"/>
      <point x="110" y="566"/>
      <point x="211" y="666"/>
      <point x="344" y="722"/>
      <point x="418" y="722" type="qcurve"/>
      <point x="471" y="722"/>
      <point x="579" y="694"/>
      <point x="617" y="671" type="qcurve"/>
      <point x="617" y="562" type="line"/>
    </contour>
    <contour>
      <point x="425" y="-21" type="line"/>
      <point x="414" y="-47"/>
      <point x="400" y="-81"/>
      <point x="386" y="-111"/>
      <point x="372" y="-145"/>
      <point x="361" y="-171" type="qcurve"/>
      <point x="312" y="-171" type="line"/>
      <point x="322" y="-145"/>
      <point x="334" y="-111"/>
      <point x="345" y="-81"/>
      <point x="357" y="-47"/>
      <point x="367" y="-21" type="qcurve"/>
    </contour>
  </outline>
</glyph>
<glyph name="Itilde" format="1">
  <advance width="338"/>
  <unicode hex="0128"/>
  <outline>
    <contour>
      <point x="284" y="714" type="line"/>
      <point x="284" y="654" type="line"/>
      <point x="203" y="654" type="line"/>
      <point x="203" y="60" type="line"/>
      <point x="284" y="60" type="line"/>
      <point x="284" y="0" type="line"/>
      <point x="56" y="0" type="line"/>
      <point x="56" y="60" type="line"/>
      <point x="135" y="60" type="line"/>
      <point x="135" y="654" type="line"/>
      <point x="56" y="654" type="line"/>
      <point x="56" y="714" type="line"/>
    </contour>
    <contour>
      <point x="159" y="793" type="qcurve"/>
      <point x="143" y="810"/>
      <point x="120" y="821"/>
      <point x="106" y="821" type="qcurve"/>
      <point x="98" y="821"/>
      <point x="80" y="817"/>
      <point x="62" y="806"/>
      <point x="49" y="786"/>
      <point x="47" y="771" type="qcurve"/>
      <point x="14" y="773" type="line"/>
      <point x="15" y="793"/>
      <point x="32" y="823"/>
      <point x="57" y="844"/>
      <point x="87" y="854"/>
      <point x="102" y="854" type="qcurve"/>
      <point x="125" y="854"/>
      <point x="161" y="836"/>
      <point x="177" y="819" type="qcurve"/>
      <point x="193" y="802"/>
      <point x="216" y="791"/>
      <point x="230" y="791" type="qcurve"/>
      <point x="237" y="791"/>
      <point x="256" y="795"/>
      <point x="274" y="806"/>
      <point x="287" y="826"/>
      <point x="289" y="841" type="qcurve"/>
      <point x="322" y="839" type="line"/>
      <point x="321" y="819"/>
      <point x="304" y="789"/>
      <point x="279" y="768"/>
      <point x="249" y="758"/>
      <point x="234" y="758" type="qcurve"/>
      <point x="211" y="758"/>
      <point x="175" y="777"/>
    </contour>
  </outline>
</glyph>
<glyph name="Imacron" format="1">
  <advance width="338"/>
  <unicode hex="012A"/>
  <outline>
    <contour>
      <point x="284" y="714" type="line"/>
      <point x="284" y="654" type="line"/>
      <point x="203" y="654" type="line"/>
      <point x="203" y="60" type="line"/>
      <point x="284" y="60" type="line"/>
      <point x="284" y="0" type="line"/>
      <point x="56" y="0" type="line"/>
      <point x="56" y="60" type="line"/>
      <point x="135" y="60" type="line"/>
      <point x="135" y="654" type="line"/>
      <point x="56" y="654" type="line"/>
      <point x="56" y="714" type="line"/>
    </contour>
    <contour>
      <point x="56" y="771" type="line"/>
      <point x="56" y="810" type="line"/>
      <point x="288" y="810" type="line"/>
      <point x="288" y="771" type="line"/>
    </contour>
  </outline>
</glyph>
<glyph name="imacron" format="1">
  <advance width="251"/>
  <unicode hex="012B"/>
  <outline>
    <contour>
      <point x="157" y="400" type="line"/>
      <point x="157" y="48" type="line"/>
      <point x="230" y="48" type="line"/>
      <point x="230" y="0" type="line"/>
      <point x="34" y="0" type="line"/>
      <point x="34" y="48" type="line"/>
      <point x="102" y="48" type="line"/>
      <point x="102" y="351" type="line"/>
      <point x="34" y="351" type="line"/>
      <point x="34" y="400" type="line"/>
    </contour>
    <contour>
      <point x="15" y="487" type="line"/>
      <point x="15" y="526" type="line"/>
      <point x="247" y="526" type="line"/>
      <point x="247" y="487" type="line"/>
    </contour>
  </outline>
</glyph>
<glyph name="Iogonek" format="1">
  <advance width="337"/>
  <unicode hex="012E"/>
  <outline>
    <contour>
      <point x="283" y="714" type="line"/>
      <point x="283" y="654" type="line"/>
      <point x="202" y="654" type="line"/>
      <point x="202" y="60" type="line"/>
      <point x="283" y="60" type="line"/>
      <point x="283" y="0" type="line"/>
      <point x="55" y="0" type="line"/>
      <point x="55" y="60" type="line"/>
      <point x="134" y="60" type="line"/>
      <point x="134" y="654" type="line"/>
      <point x="55" y="654" type="line"/>
      <point x="55" y="714" type="line"/>
    </contour>
    <contour>
      <point x="253" y="0" type="line"/>
      <point x="215" y="0" type="line"/>
      <point x="215" y="-7" type="line"/>
      <point x="215" y="-21"/>
      <point x="207" y="-38"/>
      <point x="194" y="-49"/>
      <point x="179" y="-57"/>
      <point x="173" y="-61" type="qcurve"/>
      <point x="151" y="-77"/>
      <point x="133" y="-117"/>
      <point x="133" y="-138" type="qcurve"/>
      <point x="133" y="-184"/>
      <point x="186" y="-242"/>
      <point x="231" y="-242" type="qcurve"/>
      <point x="263" y="-242"/>
      <point x="316" y="-208"/>
      <point x="327" y="-173" type="qcurve"/>
      <point x="308" y="-163"/>
      <point x="292" y="-156" type="qcurve"/>
      <point x="287" y="-174"/>
      <point x="257" y="-197"/>
      <point x="236" y="-197" type="qcurve"/>
      <point x="209" y="-197"/>
      <point x="178" y="-161"/>
      <point x="178" y="-135" type="qcurve"/>
      <point x="178" y="-112"/>
      <point x="201" y="-86"/>
      <point x="230" y="-67"/>
      <point x="253" y="-46"/>
      <point x="253" y="-28" type="qcurve"/>
    </contour>
  </outline>
</glyph>
<glyph name="Idotaccent" format="1">
  <advance width="338"/>
  <unicode hex="0130"/>
  <outline>
    <contour>
      <point x="284" y="714" type="line"/>
      <point x="284" y="654" type="line"/>
      <point x="203" y="654" type="line"/>
      <point x="203" y="60" type="line"/>
      <point x="284" y="60" type="line"/>
      <point x="284" y="0" type="line"/>
      <point x="56" y="0" type="line"/>
      <point x="56" y="60" type="line"/>
      <point x="135" y="60" type="line"/>
      <point x="135" y="654" type="line"/>
      <point x="56" y="654" type="line"/>
      <point x="56" y="714" type="line"/>
    </contour>
    <contour>
      <point x="128" y="799" type="qcurve"/>
      <point x="128" y="816"/>
      <point x="153" y="839"/>
      <point x="168" y="839" type="qcurve"/>
      <point x="183" y="839"/>
      <point x="207" y="816"/>
      <point x="207" y="799" type="qcurve"/>
      <point x="207" y="781"/>
      <point x="183" y="759"/>
      <point x="168" y="759" type="qcurve"/>
      <point x="153" y="759"/>
      <point x="128" y="781"/>
    </contour>
  </outline>
</glyph>
<glyph name="Jcircumflex" format="1">
  <advance width="327"/>
  <unicode hex="0134"/>
  <outline>
    <contour>
      <point x="223" y="714" type="line"/>
      <point x="223" y="116" type="line"/>
      <point x="223" y="54"/>
      <point x="187" y="-43"/>
      <point x="124" y="-109"/>
      <point x="39" y="-145"/>
      <point x="-10" y="-146" type="qcurve"/>
      <point x="-10" y="-82" type="line"/>
      <point x="26" y="-80"/>
      <point x="86" y="-53"/>
      <point x="129" y="-3"/>
      <point x="154" y="71"/>
      <point x="154" y="119" type="qcurve"/>
      <point x="154" y="654" type="line"/>
      <point x="50" y="654" type="line"/>
      <point x="50" y="714" type="line"/>
    </contour>
    <contour>
      <point x="152" y="889" type="qcurve"/>
      <point x="180" y="858"/>
      <point x="205" y="831" type="qcurve"/>
      <point x="226" y="808"/>
      <point x="265" y="763"/>
      <point x="273" y="755" type="qcurve"/>
      <point x="229" y="755" type="line"/>
      <point x="152" y="825" type="line"/>
      <point x="74" y="755" type="line"/>
      <point x="31" y="755" type="line"/>
      <point x="37" y="763"/>
      <point x="77" y="807"/>
      <point x="98" y="830" type="qcurve"/>
      <point x="123" y="857"/>
    </contour>
  </outline>
</glyph>
<glyph name="uni013B" format="1">
  <advance width="610"/>
  <unicode hex="013B"/>
  <outline>
    <contour>
      <point x="285" y="714" type="line"/>
      <point x="285" y="654" type="line"/>
      <point x="203" y="654" type="line"/>
      <point x="203" y="65" type="line"/>
      <point x="524" y="65" type="line"/>
      <point x="524" y="140" type="line"/>
      <point x="588" y="140" type="line"/>
      <point x="588" y="33" type="line"/>
      <point x="582" y="33" type="line"/>
      <point x="582" y="0" type="line"/>
      <point x="57" y="0" type="line"/>
      <point x="57" y="60" type="line"/>
      <point x="135" y="60" type="line"/>
      <point x="135" y="654" type="line"/>
      <point x="57" y="654" type="line"/>
      <point x="57" y="714" type="line"/>
    </contour>
    <contour>
      <point x="362" y="-21" type="line"/>
      <point x="351" y="-47"/>
      <point x="337" y="-81"/>
      <point x="323" y="-111"/>
      <point x="309" y="-145"/>
      <point x="298" y="-171" type="qcurve"/>
      <point x="249" y="-171" type="line"/>
      <point x="259" y="-145"/>
      <point x="271" y="-111"/>
      <point x="282" y="-81"/>
      <point x="294" y="-47"/>
      <point x="304" y="-21" type="qcurve"/>
    </contour>
  </outline>
</glyph>
<glyph name="Lcaron" format="1">
  <advance width="609"/>
  <unicode hex="013D"/>
  <outline>
    <contour>
      <point x="284" y="714" type="line"/>
      <point x="284" y="654" type="line"/>
      <point x="202" y="654" type="line"/>
      <point x="202" y="65" type="line"/>
      <point x="523" y="65" type="line"/>
      <point x="523" y="140" type="line"/>
      <point x="587" y="140" type="line"/>
      <point x="587" y="33" type="line"/>
      <point x="581" y="33" type="line"/>
      <point x="581" y="0" type="line"/>
      <point x="56" y="0" type="line"/>
      <point x="56" y="60" type="line"/>
      <point x="134" y="60" type="line"/>
      <point x="134" y="654" type="line"/>
      <point x="56" y="654" type="line"/>
      <point x="56" y="714" type="line"/>
    </contour>
    <contour>
      <point x="343" y="573" type="qcurve"/>
      <point x="314" y="595" type="line"/>
      <point x="336" y="615"/>
      <point x="355" y="675"/>
      <point x="348" y="710" type="qcurve"/>
      <point x="388" y="717" type="line"/>
      <point x="396" y="675"/>
      <point x="372" y="600"/>
    </contour>
  </outline>
</glyph>
<glyph name="Lslash" format="1">
  <advance width="611"/>
  <unicode hex="0141"/>
  <outline>
    <contour>
      <point x="286" y="714" type="line"/>
      <point x="286" y="654" type="line"/>
      <point x="204" y="654" type="line"/>
      <point x="204" y="379" type="line"/>
      <point x="366" y="434" type="line"/>
      <point x="366" y="377" type="line"/>
      <point x="204" y="322" type="line"/>
      <point x="204" y="65" type="line"/>
      <point x="525" y="65" type="line"/>
      <point x="525" y="140" type="line"/>
      <point x="589" y="140" type="line"/>
      <point x="589" y="33" type="line"/>
      <point x="583" y="33" type="line"/>
      <point x="583" y="0" type="line"/>
      <point x="58" y="0" type="line"/>
      <point x="58" y="60" type="line"/>
      <point x="136" y="60" type="line"/>
      <point x="136" y="299" type="line"/>
      <point x="58" y="273" type="line"/>
      <point x="58" y="330" type="line"/>
      <point x="136" y="356" type="line"/>
      <point x="136" y="654" type="line"/>
      <point x="58" y="654" type="line"/>
      <point x="58" y="714" type="line"/>
    </contour>
  </outline>
</glyph>
<glyph name="lslash" format="1">
  <advance width="244"/>
  <unicode hex="0142"/>
  <outline>
    <contour>
      <point x="222" y="0" type="line"/>
      <point x="26" y="0" type="line"/>
      <point x="26" y="48" type="line"/>
      <point x="94" y="48" type="line"/>
      <point x="94" y="282" type="line"/>
      <point x="25" y="259" type="line"/>
      <point x="25" y="315" type="line"/>
      <point x="94" y="338" type="line"/>
      <point x="94" y="717" type="line"/>
      <point x="26" y="717" type="line"/>
      <point x="26" y="766" type="line"/>
      <point x="149" y="766" type="line"/>
      <point x="149" y="357" type="line"/>
      <point x="206" y="376" type="line"/>
      <point x="206" y="319" type="line"/>
      <point x="149" y="300" type="line"/>
      <point x="149" y="48" type="line"/>
      <point x="222" y="48" type="line"/>
    </contour>
  </outline>
</glyph>
<glyph name="uni0145" format="1">
  <advance width="866"/>
  <unicode hex="0145"/>
  <outline>
    <contour>
      <point x="284" y="60" type="line"/>
      <point x="284" y="0" type="line"/>
      <point x="56" y="0" type="line"/>
      <point x="56" y="60" type="line"/>
      <point x="134" y="60" type="line"/>
      <point x="134" y="654" type="line"/>
      <point x="54" y="654" type="line"/>
      <point x="54" y="714" type="line"/>
      <point x="165" y="714" type="line"/>
      <point x="194" y="678"/>
      <point x="274" y="586"/>
      <point x="365" y="485"/>
      <point x="462" y="380"/>
      <point x="552" y="280"/>
      <point x="630" y="190"/>
      <point x="658" y="155" type="qcurve"/>
      <point x="677" y="128" type="line"/>
      <point x="674" y="161" type="line"/>
      <point x="674" y="655" type="line"/>
      <point x="591" y="655" type="line"/>
      <point x="591" y="715" type="line"/>
      <point x="819" y="715" type="line"/>
      <point x="819" y="655" type="line"/>
      <point x="742" y="655" type="line"/>
      <point x="742" y="-33" type="line"/>
      <point x="713" y="2"/>
      <point x="628" y="99"/>
      <point x="529" y="209"/>
      <point x="424" y="324"/>
      <point x="327" y="434"/>
      <point x="245" y="529"/>
      <point x="219" y="564" type="qcurve"/>
      <point x="200" y="590" type="line"/>
      <point x="203" y="558" type="line"/>
      <point x="203" y="60" type="line"/>
    </contour>
    <contour>
      <point x="475" y="-21" type="line"/>
      <point x="464" y="-47"/>
      <point x="450" y="-81"/>
      <point x="436" y="-111"/>
      <point x="422" y="-145"/>
      <point x="411" y="-171" type="qcurve"/>
      <point x="362" y="-171" type="line"/>
      <point x="372" y="-145"/>
      <point x="384" y="-111"/>
      <point x="395" y="-81"/>
      <point x="407" y="-47"/>
      <point x="417" y="-21" type="qcurve"/>
    </contour>
  </outline>
</glyph>
<glyph name="Scedilla" format="1">
  <advance width="561"/>
  <unicode hex="015E"/>
  <outline>
    <contour>
      <point x="52" y="61" type="line"/>
      <point x="52" y="173" type="line"/>
      <point x="116" y="173" type="line"/>
      <point x="116" y="100" type="line"/>
      <point x="148" y="82"/>
      <point x="225" y="59"/>
      <point x="263" y="59" type="qcurve"/>
      <point x="291" y="59"/>
      <point x="355" y="74"/>
      <point x="409" y="108"/>
      <point x="444" y="160"/>
      <point x="444" y="198" type="qcurve"/>
      <point x="444" y="245"/>
      <point x="389" y="304"/>
      <point x="307" y="344"/>
      <point x="211" y="377"/>
      <point x="129" y="420"/>
      <point x="74" y="483"/>
      <point x="74" y="535" type="qcurve"/>
      <point x="74" y="571"/>
      <point x="103" y="638"/>
      <point x="159" y="688"/>
      <point x="239" y="718"/>
      <point x="289" y="718" type="qcurve"/>
      <point x="317" y="718"/>
      <point x="376" y="709"/>
      <point x="428" y="696"/>
      <point x="470" y="682"/>
      <point x="481" y="677" type="qcurve"/>
      <point x="481" y="562" type="line"/>
      <point x="416" y="562" type="line"/>
      <point x="416" y="636" type="line"/>
      <point x="387" y="644"/>
      <point x="325" y="656"/>
      <point x="296" y="656" type="qcurve"/>
      <point x="260" y="656"/>
      <point x="203" y="638"/>
      <point x="163" y="606"/>
      <point x="142" y="565"/>
      <point x="142" y="541" type="qcurve"/>
      <point x="142" y="501"/>
      <point x="197" y="455"/>
      <point x="279" y="420"/>
      <point x="374" y="387"/>
      <point x="456" y="336"/>
      <point x="511" y="258"/>
      <point x="511" y="195" type="qcurve"/>
      <point x="511" y="106"/>
      <point x="394" y="-2"/>
      <point x="285" y="-7" type="qcurve"/>
      <point x="285" y="-21"/>
      <point x="293" y="-38"/>
      <point x="305" y="-49"/>
      <point x="320" y="-57"/>
      <point x="326" y="-61" type="qcurve"/>
      <point x="348" y="-77"/>
      <point x="366" y="-117"/>
      <point x="366" y="-138" type="qcurve"/>
      <point x="366" y="-184"/>
      <point x="313" y="-242"/>
      <point x="268" y="-242" type="qcurve"/>
      <point x="237" y="-242"/>
      <point x="184" y="-208"/>
      <point x="172" y="-173" type="qcurve"/>
      <point x="191" y="-163"/>
      <point x="207" y="-156" type="qcurve"/>
      <point x="212" y="-174"/>
      <point x="242" y="-197"/>
      <point x="264" y="-197" type="qcurve"/>
      <point x="290" y="-197"/>
      <point x="322" y="-161"/>
      <point x="322" y="-135" type="qcurve"/>
      <point x="322" y="-112"/>
      <point x="299" y="-86"/>
      <point x="270" y="-67"/>
      <point x="247" y="-46"/>
      <point x="247" y="-28" type="qcurve"/>
      <point x="247" y="-7" type="line"/>
      <point x="209" y="-6"/>
      <point x="147" y="10"/>
      <point x="99" y="30"/>
      <point x="64" y="52"/>
      <point x="53" y="61" type="qcurve"/>
    </contour>
  </outline>
</glyph>
<glyph name="uni0162" format="1">
  <advance width="572"/>
  <unicode hex="0162"/>
  <outline>
    <contour>
      <point x="463" y="562" type="line"/>
      <point x="463" y="649" type="line"/>
      <point x="320" y="649" type="line"/>
      <point x="320" y="0" type="line"/>
      <point x="251" y="0" type="line"/>
      <point x="251" y="649" type="line"/>
      <point x="108" y="649" type="line"/>
      <point x="108" y="562" type="line"/>
      <point x="43" y="562" type="line"/>
      <point x="43" y="714" type="line"/>
      <point x="528" y="714" type="line"/>
      <point x="528" y="562" type="line"/>
    </contour>
    <contour>
      <point x="301" y="-21" type="line"/>
      <point x="290" y="-47"/>
      <point x="276" y="-81"/>
      <point x="262" y="-111"/>
      <point x="248" y="-145"/>
      <point x="237" y="-171" type="qcurve"/>
      <point x="188" y="-171" type="line"/>
      <point x="198" y="-145"/>
      <point x="210" y="-111"/>
      <point x="221" y="-81"/>
      <point x="233" y="-47"/>
      <point x="243" y="-21" type="qcurve"/>
    </contour>
  </outline>
</glyph>
<glyph name="Tcaron" format="1">
  <advance width="572"/>
  <unicode hex="0164"/>
  <outline>
    <contour>
      <point x="463" y="562" type="line"/>
      <point x="463" y="649" type="line"/>
      <point x="320" y="649" type="line"/>
      <point x="320" y="0" type="line"/>
      <point x="251" y="0" type="line"/>
      <point x="251" y="649" type="line"/>
      <point x="108" y="649" type="line"/>
      <point x="108" y="562" type="line"/>
      <point x="43" y="562" type="line"/>
      <point x="43" y="714" type="line"/>
      <point x="528" y="714" type="line"/>
      <point x="528" y="562" type="line"/>
    </contour>
    <contour>
      <point x="287" y="737" type="qcurve"/>
      <point x="258" y="769"/>
      <point x="233" y="796" type="qcurve"/>
      <point x="212" y="819"/>
      <point x="172" y="863"/>
      <point x="166" y="871" type="qcurve"/>
      <point x="209" y="871" type="line"/>
      <point x="287" y="801" type="line"/>
      <point x="364" y="871" type="line"/>
      <point x="408" y="871" type="line"/>
      <point x="400" y="862"/>
      <point x="361" y="818"/>
      <point x="340" y="795" type="qcurve"/>
      <point x="315" y="768"/>
    </contour>
  </outline>
</glyph>
<glyph name="tcaron" format="1">
  <advance width="283"/>
  <unicode hex="0165"/>
  <outline>
    <contour>
      <point x="151" y="346" type="line"/>
      <point x="151" y="48" type="line"/>
      <point x="245" y="48" type="line"/>
      <point x="245" y="0" type="line"/>
      <point x="96" y="0" type="line"/>
      <point x="96" y="346" type="line"/>
      <point x="15" y="346" type="line"/>
      <point x="15" y="396" type="line"/>
      <point x="96" y="396" type="line"/>
      <point x="96" y="575" type="line"/>
      <point x="151" y="575" type="line"/>
      <point x="151" y="396" type="line"/>
      <point x="269" y="396" type="line"/>
      <point x="269" y="346" type="line"/>
    </contour>
    <contour>
      <point x="239" y="573" type="qcurve"/>
      <point x="210" y="595" type="line"/>
      <point x="232" y="615"/>
      <point x="251" y="675"/>
      <point x="244" y="710" type="qcurve"/>
      <point x="284" y="717" type="line"/>
      <point x="292" y="675"/>
      <point x="268" y="600"/>
    </contour>
  </outline>
</glyph>
<glyph name="tbar" format="1">
  <advance width="283"/>
  <unicode hex="0167"/>
  <outline>
    <contour>
      <point x="25" y="446" type="line"/>
      <point x="25" y="485" type="line"/>
      <point x="96" y="485" type="line"/>
      <point x="96" y="575" type="line"/>
      <point x="151" y="575" type="line"/>
      <point x="151" y="485" type="line"/>
      <point x="257" y="485" type="line"/>
      <point x="257" y="446" type="line"/>
      <point x="151" y="446" type="line"/>
      <point x="151" y="396" type="line"/>
      <point x="269" y="396" type="line"/>
      <point x="269" y="346" type="line"/>
      <point x="151" y="346" type="line"/>
      <point x="151" y="48" type="line"/>
      <point x="245" y="48" type="line"/>
      <point x="245" y="0" type="line"/>
      <point x="96" y="0" type="line"/>
      <point x="96" y="346" type="line"/>
      <point x="15" y="346" type="line"/>
      <point x="15" y="396" type="line"/>
      <point x="96" y="396" type="line"/>
      <point x="96" y="446" type="line"/>
    </contour>
  </outline>
</glyph>
<glyph name="utilde" format="1">
  <advance width="530"/>
  <unicode hex="0169"/>
  <outline>
    <contour>
      <point x="383" y="187" type="qcurve"/>
      <point x="383" y="351" type="line"/>
      <point x="311" y="351" type="line"/>
      <point x="311" y="400" type="line"/>
      <point x="438" y="400" type="line"/>
      <point x="438" y="48" type="line"/>
      <point x="506" y="48" type="line"/>
      <point x="506" y="0" type="line"/>
      <point x="393" y="0" type="line"/>
      <point x="387" y="103" type="line"/>
      <point x="365" y="53"/>
      <point x="279" y="-9"/>
      <point x="219" y="-9" type="qcurve"/>
      <point x="159" y="-9"/>
      <point x="90" y="57"/>
      <point x="88" y="111" type="qcurve"/>
      <point x="88" y="351" type="line"/>
      <point x="20" y="351" type="line"/>
      <point x="20" y="400" type="line"/>
      <point x="143" y="400" type="line"/>
      <point x="143" y="130" type="line"/>
      <point x="145" y="96"/>
      <point x="189" y="48"/>
      <point x="233" y="46" type="qcurve"/>
      <point x="264" y="46"/>
      <point x="319" y="67"/>
      <point x="360" y="104"/>
      <point x="383" y="156"/>
    </contour>
    <contour>
      <point x="256" y="499" type="qcurve"/>
      <point x="240" y="516"/>
      <point x="217" y="527"/>
      <point x="203" y="527" type="qcurve"/>
      <point x="195" y="527"/>
      <point x="177" y="523"/>
      <point x="159" y="512"/>
      <point x="146" y="492"/>
      <point x="144" y="477" type="qcurve"/>
      <point x="111" y="479" type="line"/>
      <point x="112" y="499"/>
      <point x="129" y="529"/>
      <point x="154" y="550"/>
      <point x="184" y="560"/>
      <point x="199" y="560" type="qcurve"/>
      <point x="222" y="560"/>
      <point x="258" y="542"/>
      <point x="274" y="525" type="qcurve"/>
      <point x="290" y="508"/>
      <point x="313" y="497"/>
      <point x="327" y="497" type="qcurve"/>
      <point x="334" y="497"/>
      <point x="353" y="501"/>
      <point x="371" y="512"/>
      <point x="384" y="532"/>
      <point x="386" y="547" type="qcurve"/>
      <point x="419" y="545" type="line"/>
      <point x="418" y="525"/>
      <point x="401" y="495"/>
      <point x="376" y="474"/>
      <point x="346" y="464"/>
      <point x="331" y="464" type="qcurve"/>
      <point x="308" y="464"/>
      <point x="272" y="483"/>
    </contour>
  </outline>
</glyph>
<glyph name="ubreve" format="1">
  <advance width="530"/>
  <unicode hex="016D"/>
  <outline>
    <contour>
      <point x="383" y="187" type="qcurve"/>
      <point x="383" y="351" type="line"/>
      <point x="311" y="351" type="line"/>
      <point x="311" y="400" type="line"/>
      <point x="438" y="400" type="line"/>
      <point x="438" y="48" type="line"/>
      <point x="506" y="48" type="line"/>
      <point x="506" y="0" type="line"/>
      <point x="393" y="0" type="line"/>
      <point x="387" y="103" type="line"/>
      <point x="365" y="53"/>
      <point x="279" y="-9"/>
      <point x="219" y="-9" type="qcurve"/>
      <point x="159" y="-9"/>
      <point x="90" y="57"/>
      <point x="88" y="111" type="qcurve"/>
      <point x="88" y="351" type="line"/>
      <point x="20" y="351" type="line"/>
      <point x="20" y="400" type="line"/>
      <point x="143" y="400" type="line"/>
      <point x="143" y="130" type="line"/>
      <point x="145" y="96"/>
      <point x="189" y="48"/>
      <point x="233" y="46" type="qcurve"/>
      <point x="264" y="46"/>
      <point x="319" y="67"/>
      <point x="360" y="104"/>
      <point x="383" y="156"/>
    </contour>
    <contour>
      <point x="252" y="500" type="qcurve"/>
      <point x="219" y="500"/>
      <point x="160" y="524"/>
      <point x="116" y="566"/>
      <point x="90" y="624"/>
      <point x="89" y="657" type="qcurve"/>
      <point x="123" y="657" type="line"/>
      <point x="124" y="631"/>
      <point x="144" y="587"/>
      <point x="178" y="553"/>
      <point x="225" y="534"/>
      <point x="252" y="534" type="qcurve"/>
      <point x="308" y="534"/>
      <point x="376" y="606"/>
      <point x="378" y="657" type="qcurve"/>
      <point x="413" y="657" type="line"/>
      <point x="413" y="624"/>
      <point x="387" y="566"/>
      <point x="343" y="524"/>
      <point x="285" y="500"/>
    </contour>
  </outline>
</glyph>
<glyph name="uring" format="1">
  <advance width="530"/>
  <unicode hex="016F"/>
  <outline>
    <contour>
      <point x="383" y="187" type="qcurve"/>
      <point x="383" y="351" type="line"/>
      <point x="311" y="351" type="line"/>
      <point x="311" y="400" type="line"/>
      <point x="438" y="400" type="line"/>
      <point x="438" y="48" type="line"/>
      <point x="506" y="48" type="line"/>
      <point x="506" y="0" type="line"/>
      <point x="393" y="0" type="line"/>
      <point x="387" y="103" type="line"/>
      <point x="365" y="53"/>
      <point x="279" y="-9"/>
      <point x="219" y="-9" type="qcurve"/>
      <point x="159" y="-9"/>
      <point x="90" y="57"/>
      <point x="88" y="111" type="qcurve"/>
      <point x="88" y="351" type="line"/>
      <point x="20" y="351" type="line"/>
      <point x="20" y="400" type="line"/>
      <point x="143" y="400" type="line"/>
      <point x="143" y="130" type="line"/>
      <point x="145" y="96"/>
      <point x="189" y="48"/>
      <point x="233" y="46" type="qcurve"/>
      <point x="264" y="46"/>
      <point x="319" y="67"/>
      <point x="360" y="104"/>
      <point x="383" y="156"/>
    </contour>
    <contour>
      <point x="177" y="524" type="qcurve"/>
      <point x="177" y="555"/>
      <point x="221" y="599"/>
      <point x="253" y="599" type="qcurve"/>
      <point x="285" y="599"/>
      <point x="329" y="555"/>
      <point x="329" y="524" type="qcurve"/>
      <point x="329" y="492"/>
      <point x="285" y="448"/>
      <point x="253" y="448" type="qcurve"/>
      <point x="221" y="448"/>
      <point x="177" y="492"/>
    </contour>
    <contour>
      <point x="212" y="523" type="qcurve"/>
      <point x="212" y="506"/>
      <point x="236" y="482"/>
      <point x="253" y="482" type="qcurve"/>
      <point x="270" y="482"/>
      <point x="294" y="506"/>
      <point x="294" y="523" type="qcurve"/>
      <point x="294" y="540"/>
      <point x="270" y="564"/>
      <point x="253" y="564" type="qcurve"/>
      <point x="236" y="564"/>
      <point x="212" y="540"/>
    </contour>
  </outline>
</glyph>
<glyph name="uhungarumlaut" format="1">
  <advance width="530"/>
  <unicode hex="0171"/>
  <outline>
    <contour>
      <point x="506" y="0" type="line"/>
      <point x="393" y="0" type="line"/>
      <point x="387" y="103" type="line"/>
      <point x="365" y="53"/>
      <point x="279" y="-9"/>
      <point x="219" y="-9" type="qcurve"/>
      <point x="159" y="-9"/>
      <point x="90" y="57"/>
      <point x="88" y="111" type="qcurve"/>
      <point x="88" y="351" type="line"/>
      <point x="20" y="351" type="line"/>
      <point x="20" y="400" type="line"/>
      <point x="143" y="400" type="line"/>
      <point x="143" y="130" type="line"/>
      <point x="145" y="96"/>
      <point x="189" y="48"/>
      <point x="233" y="46" type="qcurve"/>
      <point x="264" y="46"/>
      <point x="319" y="67"/>
      <point x="360" y="104"/>
      <point x="383" y="156"/>
      <point x="383" y="187" type="qcurve"/>
      <point x="383" y="351" type="line"/>
      <point x="311" y="351" type="line"/>
      <point x="311" y="400" type="line"/>
      <point x="438" y="400" type="line"/>
      <point x="438" y="48" type="line"/>
      <point x="506" y="48" type="line"/>
    </contour>
    <contour>
      <point x="324" y="483" type="line"/>
      <point x="347" y="516"/>
      <point x="392" y="583"/>
      <point x="415" y="617" type="qcurve"/>
      <point x="475" y="617" type="line"/>
      <point x="449" y="583"/>
      <point x="395" y="516"/>
      <point x="368" y="483" type="qcurve"/>
    </contour>
    <contour>
      <point x="105" y="483" type="line"/>
      <point x="196" y="617" type="line"/>
      <point x="255" y="617" type="line"/>
      <point x="229" y="583"/>
      <point x="175" y="516"/>
      <point x="148" y="483" type="qcurve"/>
    </contour>
  </outline>
</glyph>
<glyph name="uogonek" format="1">
  <advance width="531"/>
  <unicode hex="0173"/>
  <outline>
    <contour>
      <point x="507" y="0" type="line"/>
      <point x="394" y="0" type="line"/>
      <point x="388" y="103" type="line"/>
      <point x="366" y="53"/>
      <point x="280" y="-9"/>
      <point x="220" y="-9" type="qcurve"/>
      <point x="160" y="-9"/>
      <point x="91" y="57"/>
      <point x="89" y="111" type="qcurve"/>
      <point x="89" y="351" type="line"/>
      <point x="21" y="351" type="line"/>
      <point x="21" y="400" type="line"/>
      <point x="144" y="400" type="line"/>
      <point x="144" y="130" type="line"/>
      <point x="146" y="96"/>
      <point x="190" y="48"/>
      <point x="234" y="46" type="qcurve"/>
      <point x="265" y="46"/>
      <point x="320" y="67"/>
      <point x="361" y="104"/>
      <point x="384" y="156"/>
      <point x="384" y="187" type="qcurve"/>
      <point x="384" y="351" type="line"/>
      <point x="312" y="351" type="line"/>
      <point x="312" y="400" type="line"/>
      <point x="439" y="400" type="line"/>
      <point x="439" y="48" type="line"/>
      <point x="507" y="48" type="line"/>
    </contour>
    <contour>
      <point x="433" y="0" type="line"/>
      <point x="395" y="0" type="line"/>
      <point x="395" y="-7" type="line"/>
      <point x="395" y="-21"/>
      <point x="387" y="-38"/>
      <point x="374" y="-49"/>
      <point x="359" y="-57"/>
      <point x="353" y="-61" type="qcurve"/>
      <point x="331" y="-77"/>
      <point x="313" y="-117"/>
      <point x="313" y="-138" type="qcurve"/>
      <point x="313" y="-184"/>
      <point x="366" y="-242"/>
      <point x="411" y="-242" type="qcurve"/>
      <point x="443" y="-242"/>
      <point x="496" y="-208"/>
      <point x="507" y="-173" type="qcurve"/>
      <point x="488" y="-163"/>
      <point x="472" y="-156" type="qcurve"/>
      <point x="467" y="-174"/>
      <point x="437" y="-197"/>
      <point x="416" y="-197" type="qcurve"/>
      <point x="389" y="-197"/>
      <point x="358" y="-161"/>
      <point x="358" y="-135" type="qcurve"/>
      <point x="358" y="-112"/>
      <point x="381" y="-86"/>
      <point x="410" y="-67"/>
      <point x="433" y="-46"/>
      <point x="433" y="-28" type="qcurve"/>
    </contour>
  </outline>
</glyph>
<glyph name="Ydieresis" format="1">
  <advance width="714"/>
  <unicode hex="0178"/>
  <outline>
    <contour>
      <point x="472" y="60" type="line"/>
      <point x="472" y="0" type="line"/>
      <point x="243" y="0" type="line"/>
      <point x="243" y="60" type="line"/>
      <point x="323" y="60" type="line"/>
      <point x="323" y="249" type="line"/>
      <point x="312" y="267"/>
      <point x="279" y="324"/>
      <point x="239" y="394"/>
      <point x="194" y="473"/>
      <point x="150" y="551"/>
      <point x="109" y="624"/>
      <point x="92" y="654" type="qcurve"/>
      <point x="6" y="654" type="line"/>
      <point x="6" y="714" type="line"/>
      <point x="234" y="714" type="line"/>
      <point x="234" y="654" type="line"/>
      <point x="169" y="654" type="line"/>
      <point x="188" y="620"/>
      <point x="234" y="540"/>
      <point x="281" y="456"/>
      <point x="326" y="374"/>
      <point x="346" y="339" type="qcurve"/>
      <point x="358" y="309" type="line"/>
      <point x="370" y="339" type="line"/>
      <point x="389" y="374"/>
      <point x="434" y="456"/>
      <point x="480" y="540"/>
      <point x="525" y="620"/>
      <point x="544" y="654" type="qcurve"/>
      <point x="480" y="654" type="line"/>
      <point x="480" y="714" type="line"/>
      <point x="706" y="714" type="line"/>
      <point x="706" y="654" type="line"/>
      <point x="623" y="654" type="line"/>
      <point x="392" y="249" type="line"/>
      <point x="392" y="60" type="line"/>
    </contour>
    <contour>
      <point x="407" y="813" type="qcurve"/>
      <point x="407" y="830"/>
      <point x="431" y="854"/>
      <point x="447" y="854" type="qcurve"/>
      <point x="462" y="854"/>
      <point x="487" y="830"/>
      <point x="487" y="813" type="qcurve"/>
      <point x="487" y="795"/>
      <point x="462" y="772"/>
      <point x="447" y="772" type="qcurve"/>
      <point x="431" y="772"/>
      <point x="407" y="795"/>
    </contour>
    <contour>
      <point x="228" y="813" type="qcurve"/>
      <point x="228" y="830"/>
      <point x="252" y="854"/>
      <point x="268" y="854" type="qcurve"/>
      <point x="283" y="854"/>
      <point x="308" y="830"/>
      <point x="308" y="813" type="qcurve"/>
      <point x="308" y="795"/>
      <point x="283" y="772"/>
      <point x="268" y="772" type="qcurve"/>
      <point x="252" y="772"/>
      <point x="228" y="795"/>
    </contour>
  </outline>
</glyph>
<glyph name="florin" format="1">
  <advance width="356"/>
  <unicode hex="0192"/>
  <outline>
    <contour>
      <point x="173" y="345" type="line"/>
      <point x="173" y="79" type="line"/>
      <point x="173" y="-43"/>
      <point x="56" y="-166"/>
      <point x="-41" y="-169" type="qcurve"/>
      <point x="-41" y="-117" type="line"/>
      <point x="33" y="-114"/>
      <point x="118" y="-12"/>
      <point x="118" y="79" type="qcurve"/>
      <point x="118" y="345" type="line"/>
      <point x="49" y="345" type="line"/>
      <point x="49" y="399" type="line"/>
      <point x="118" y="399" type="line"/>
      <point x="118" y="517" type="line"/>
      <point x="118" y="639"/>
      <point x="235" y="762"/>
      <point x="332" y="766" type="qcurve"/>
      <point x="332" y="713" type="line"/>
      <point x="258" y="711"/>
      <point x="173" y="608"/>
      <point x="173" y="517" type="qcurve"/>
      <point x="173" y="399" type="line"/>
      <point x="304" y="399" type="line"/>
      <point x="304" y="345" type="line"/>
    </contour>
  </outline>
</glyph>
